<svg id="fb8e8d0b-1dcc-4bb3-983e-3570d4d6a7b2" data-name="Layer 1" xmlns="http://www.w3.org/2000/svg"
     viewBox="0 0 3275 3275">
    <path d="M3276.392,2225.891V3275.578H2v-648.1c14.9-7.137,32.482-6.93,53.136,6.276,78.549,50,71.618,160.339,175.58,181.028,30.034,5.172,46.206-36.2,67.506-58.5,48.008-41.5,71.11-131.15,128.867-119.082,73.929,13.793,25.413,105.169,53.136,163.788a37.165,37.165,0,0,0,20.793,12.068c80.859,12.069,115.513,63.791,180.2,93.1,27.723,12.069,57.756,8.621,85.919,1.293,17.4-4.62,34.746-9.517,52.189-14.43,54.822-16.5,110.338-33.189,164.352-49.447,18-5.413,36.063-10.706,54.153-14.706,73.1-2.017,142.4,8.327,216.333,8.327,64.688-1.724,103.962,46.55,159.409,67.239,9.241,3.448,18.482,3.448,27.145,4.707,53.437-12.689,83.609-44.05,106.2-80.618,11.3-18.292,20.7-37.895,30.173-57.188,42.093-66.894,53.644-168.614,164.537-184.131,46.2-6.9,74.506,11.637,97.909,37.274,11.69,12.828,22.155,27.431,33.014,41.533a293.84,293.84,0,0,0,116.275,90.153c16.172,5.172,32.344,6.9,46.206,13.792,29.456,15.517,59.235,29.585,89.107,43.257,84.163,36.051,155.781,79.153,225.089,130.875,30.034,22.413,71.619,31.033,113.55,34.085,34.146,3.224,68.961,5.569,103.615,10.741,16.172,3.448,27.724,12.069,39.737,19.706,17.443,11.758,34.192,25.12,52.674,37.189,23.1,12.068,46.206,22.413,71.619,27.585,28.878,6.034,51.981-4.31,70.185-20.689,18.182-16.379,31.466-38.792,40.707-56.895,8.086-16.378,15.017-33.412,22.156-50.429,7.162-17.12,14.531-34.223,23.472-50.826,32.275-49.309,57.965-100.014,80.767-151.391,7.6-17.137,14.878-34.344,21.971-51.6,7.993-17.671,15.248-35.516,21.994-53.5,6.768-17.965,13.03-36.05,19.059-54.222,62.4-125.944,43.918-305.248,207.948-384.555A170.492,170.492,0,0,1,3276.392,2225.891Z"
          fill="#456063"/>
</svg>
