<svg id="aed61079-23f5-4215-a9d0-8be4a82d905b" data-name="Layer 1" xmlns="http://www.w3.org/2000/svg"
     viewBox="0 0 3275 3275">
    <path d="M3276.392,1327.233V3275.578H2V1501.934a17.161,17.161,0,0,1,11.3,5.12c74.183,54.326,76.493,131.909,106.526,202.6,4.621,15.516,20.793,29.309,30.034,44.826,41.077,67.049,70.024,136.753,103.847,204.734q10.118,20.378,21,40.533c13.769,21.965,23.01,51.274,55.354,59.894,20.792,5.172,32.344-12.068,43.9-22.413,46.2-58.618,48.516-129.306,115.513-175.856,27.724-18.964,62.378,5.173,76.239,27.586,53.136,84.479,57.757,181.028,133.7,255.715,13.4,8.9,28.948,14.861,47.731,17.137,17.719,1.931,35.647,1.224,54.175.155,30.542-3.431,62.932-7.879,97.979-20.982,12.96-10.655,22.2-24.447,33.753-36.516,64.687-86.2,78.549-181.028,154.788-265.508,11.551-10.344,27.723-18.964,41.585-10.344,83.169,50,80.859,131.03,134,196.545a171.6,171.6,0,0,0,50.526,42.653c28.578,16.793,59.143,29.689,99.5,24.448,60.206-10.207,108.721-46.412,134.134-86.066,73.929-113.789,101.652-236.2,187.132-344.816,16.172-22.413,60.067-27.585,87.79-10.551a213.042,213.042,0,0,1,66.005,54.291c16.888,20.9,29.34,44.154,39.2,68.256a422.74,422.74,0,0,1,15.8,43.706c9.172,29.585,16.495,59.308,27.492,84.911a336.6,336.6,0,0,0,17.674,43.326,195.71,195.71,0,0,0,26.06,39.7,177.952,177.952,0,0,0,39.39,34.051c52.166-2,92.341-17.31,125.863-39.775a305.548,305.548,0,0,0,46-38.395c70.116-69.187,93.219-155.391,148.665-232.975,13.862-17.24,25.413-37.929,53.136-44.826,20.793-5.172,36.965,6.9,48.516,18.965,11.159,11.776,20.538,25.43,29.04,39.982s16.149,30,23.865,45.377c16.4,26.706,32.575,78.429,71.85,66.36,101.651-34.481,122.444-131.03,194.062-196.545,13.862-12.068,32.344-29.309,55.446-20.689,32.344,12.931,47.939,35.344,60.945,59.688,12.984,24.361,23.38,50.653,45.328,71.342,43.9,18.965,69.308-29.309,85.48-51.722,87.79-120.685,94.721-262.06,217.165-365.5C3264.009,1326.13,3270.178,1325.63,3276.392,1327.233Z"
          fill="#de8838"/>
</svg>
