<svg id="ec0f23d6-1205-42f5-9778-09bdbad299b9" data-name="Layer 1" xmlns="http://www.w3.org/2000/svg"
     viewBox="0 0 3275 3275">
    <path d="M3276.392,384.99V3275.578H2V919.644c31.905,25.171,61.638,52.619,92.411,79.687,33.5,27.585,68.73,56.032,108.582,77.79a448.4,448.4,0,0,0,63.856,28.327c72.45,35.257,141.758,121.461,238.789,81.807,25.413-11.206,49.093-30.171,74.714-43.1s53.437-18.758,88.83,2.224c42.971,39.395,89.893,77.635,145.108,102.359,18.182,8.637,37.426,16.24,59.212,26.033,66.467,33.172,124.223,76.273,200.462,95.238,16.172,5.173,34.654-8.62,48.516-20.689,64.687-60.342,101.652-139.65,203.95-168.718,29.133-10.637,59.952-21.9,92.134-33.654q25.887-9.439,52.859-19.292c17.974-6.983,36.294-13.965,54.915-21.241,21.231-8.81,39.713-19.154,60.506-31.223,78.942-47.412,125.771-140.323,211.389-163.994a160.614,160.614,0,0,1,56.6-4.966c78.549,18.965,152.478-6.9,205.614-55.17s92.41-151.719,175.58-129.306c16.75,4.741,32.483,13.034,48.008,22.155s30.818,19.051,46.69,27.085c27.746,16.275,64.711,5.931,83.193-14.758,21.67-24.568,38.443-50.343,55.469-75.429,8.525-12.551,17.1-24.93,26.176-37.378,68.522-78.566,119.348-164.77,174.795-250.974,18.482-29.309,50.825-68.963,78.549-65.515,75.476,8.052,113.965,63.6,132.724,123.565a340.791,340.791,0,0,1,10.651,45.119c17.235,48.05,3.327,149.288,37.218,185.994,11.3,12.223,27.908,17.292,52.744,10.827,17.327-2.586,33.36-8.327,48.7-16.034,20.608-8.1,32.159-23.62,46.021-37.413,78.549-84.479,64.687-227.578,194.062-253.439A29.543,29.543,0,0,1,3276.392,384.99Z"
          fill="#fcdd5a"/>
</svg>
