<svg data-name="Layer 1" xmlns="http://www.w3.org/2000/svg" viewBox="0 0 5120 2160">
    <path d="M3447.042 510.644c2.975 2.4 5.7 4.641 6.984 8.378.8 2.323 1.73 7.411.278 9.544-1.7 2.5 1.139 6.231 4.01 5.216 3.722-1.317 7.491-2.748 11.469-3.061 3.788-.3 7.43.5 11.172.887 2.467.252 4.129-3.555 2.121-5.122-7.77-6.063-19.669-4.363-27.5.806l5.216 4.01c.515-2.863 2.148-5.036 2.188-8.079a18.415 18.415 0 00-1.469-7.428 16.345 16.345 0 00-11.735-9.852c-2.445-.446-5.149 2.756-2.736 4.7zM3469.819 488.691c4.915 3.668 5.481 8.9 3.874 14.469a3.271 3.271 0 003.991 3.991c5.685-1.789 9.894.869 13.717 5.024 1.49 1.619 4.145-.079 3.6-2.1-2.366-8.835-10.576-12.48-19.046-9.184l3.992 3.992c1.8-8.288-.053-15.871-7.813-20.161-2.653-1.466-4.636 2.237-2.319 3.967zM3385.183 562.782c6.8.29 11 4.055 10.82 11.017-.061 2.429 2.242 3.68 4.365 3.325 5.864-.983 11.726 1.884 17.4-.23 1.782-.664 2.718-3.56.594-4.541-6.163-2.845-13.291-3.872-19.827-1.879l4.365 3.325c-.319-10.988-7.34-17.315-18.314-15.437-2.6.444-1.827 4.316.6 4.42zM3416.184 552.134c7.692 3.516 8.776 9.313 10.016 16.916a.931.931 0 001.687.22c1.359-2.878 7.935-2.533 10.511-2.521 3.745.016 7.515.453 11.231-.057 2.307-.318 1.969-3.789 0-4.34-4.792-1.339-10.469-.987-15.278.191-4.134 1.013-5.612 2.575-8.058 5.795l1.687.712c3.518-8.418-2.322-16.695-9.951-20.073-2.124-.941-3.994 2.175-1.845 3.157zM3489.459 472.644c5.952-2.332 11.1-2.035 15.459 2.886 2.619 2.955 9.411 12.527 5.742 16.33-2.178 2.258.082 5.356 2.857 4.907 3.813-.617 7.188-2.139 11.136-2.076a28.452 28.452 0 0111.488 2.888c7.249 3.392 12.575 8.677 17.354 14.988 2.47 3.261 8.069 1.539 6.94-2.926-2.553-10.094-12.544-17.572-21.94-21.049-8.616-3.188-22.054-4.374-28.294 3.862l4.611-.594c-2.738-2.631-1.77-9.312-2.605-12.828a18.89 18.89 0 00-4.666-8.935c-5.729-5.665-13.06-4.821-19.6-1.051-1.869 1.077-.614 4.433 1.517 3.6zM3556.238 466.7c8.812 3.358 11.393 12.947 8.3 21.175-1.076 2.863 3.62 4.855 4.962 2.093 3.906-8.04 18.917 1.882 24.333 4.179 1.628.691 3.555-1.208 2.045-2.65-7.5-7.157-23.285-14.978-31.066-4.27l4.688 2.741c5.183-10.9.383-24.878-12.189-27.155a2.017 2.017 0 00-1.072 3.887zM3490 456.953c-9.487-4.628-19.807-2.96-26.575 5.38l4.049 3.125c4.621-10.81-1.222-21.522-11.251-26.706a2.4 2.4 0 00-2.9 3.755c5.658 6.107 12.556 11.777 9.436 20.964-1.016 2.993 3.091 4.138 4.712 1.987 5-6.64 12.943-8.18 20.4-4.863 2.436 1.085 4.6-2.438 2.129-3.642zM3435.774 495.469c-9.064-6.842-19.726-9.915-28.715-1.2l4.532 1.2c-1.265-7.94-4.461-16.028-11.353-20.594-1.8-1.194-4.078 1.162-2.95 2.95 3.92 6.22 7.657 11.712 9.074 19.085.39 2.026 3.191 2.583 4.531 1.2 6.914-7.148 15.635-4.112 23.461-.2a1.408 1.408 0 001.42-2.429zM3314.189 451.953c3.4 4.345 7.875 4.976 6.758 11.491a2.346 2.346 0 002.85 2.85c7.641-2.241 15.646-1.087 23.476-1.139a2.4 2.4 0 00.636-4.7 37.586 37.586 0 00-25.344 1.367l2.933 2.234c.352-3.1.345-6.312-1.825-8.791-2.013-2.3-5.056-3.384-7.164-5.636-1.481-1.582-3.585.705-2.32 2.32zM3329.413 475.259a18.081 18.081 0 002.275 4.693c1.231 2.136.057 3.616-1.27 5.573-1.671 2.467 1.706 5.968 4.188 4.187 4.848-3.481 8.938.231 14.027 1.3 2.14.448 4.284-2.331 2.326-4-6.178-5.25-13.26-7.458-20.062-2.107l4.806 3.709c1.717-2.792 3.287-6.008 1.844-9.255-1.015-2.284-3.361-3.444-4.536-5.617-1.08-2-4.133-.616-3.6 1.517zM3326.414 494.822c-8.964-5.269-18.561-5.882-26.714 1.17l4.8 1.267c-.973-5.2-4.107-10.139-7.677-13.972a2.038 2.038 0 00-3.441 1.425c-.318 5.315 4.4 9.086 5.58 14.074a2.9 2.9 0 004.8 1.267c6.042-5.736 13.453-5.011 20.476-1.507 2.465 1.229 4.592-2.3 2.177-3.724zM3246.914 499.275c5.05 4.055 5.864 7.99 2.249 13.364-1.447 2.15 1.341 4.557 3.406 3.406 6.521-3.632 13.306-2.693 20.332-1.41a2.073 2.073 0 001.589-3.77 21.052 21.052 0 00-24.434.88l3.407 3.407c3.446-7.569 1.5-12.923-5.526-17.2-.8-.485-1.784.714-1.023 1.325zM3601.992 443.258c9.013 3.679 7.9 13.2 8.93 21.193a2.091 2.091 0 001.483 1.949c8.031 1.55 16.384 2.484 24.212 4.893 8.9 2.738 14.186 8.4 20.357 14.977a2.219 2.219 0 003.682-2.143c-5.884-20.128-30.808-20.43-47.714-21.7l1.949 2.557c3.923-10.587-.215-23.324-11.554-26.612-3.213-.932-4.276 3.685-1.345 4.882zM3632.554 425.416a21.436 21.436 0 002.17 4.756c1.2 2.4.3 4.21-1.04 6.449-1.214 2.035.865 5.4 3.36 4.37 3.018-1.25 5.272-1.452 8.222-.081a22.634 22.634 0 007.28 2.438c2.587.3 3.311-3.55 1.277-4.717-2.782-1.6-5.594-3.656-8.7-4.585-3.625-1.082-7.058-.079-10.366 1.507l4.07 4.071c1.52-2.9 2.838-6.054 1.722-9.313-.807-2.354-2.991-3.768-3.921-6.017-1.012-2.445-4.7-1.6-4.069 1.122zM3683.137 419.731a29.734 29.734 0 00-10.879-2.6c-3.935-.185-8.488 1.471-12.291.863l1.85 3.259c2.423-5.909-.534-8.686-3.54-13.377a2.032 2.032 0 00-3.756 1.017c.038 4.224 3.662 6.626 2.188 10.952-.716 2.1 2.017 4.324 3.891 2.991 5.4-3.841 15.786-2.807 21.525-.706 1.382.506 2.373-1.793 1.012-2.4zM3626.165 374.974c.286 4.236 2.239 8.318 1.455 12.588-.5 2.743 2.718 5.1 4.915 2.862 6.2-6.311 13.412-3.73 21.233-2.672 3.648.494 5.145-4.291 1.546-5.605-9.363-3.415-21.279-5.023-27.4 4.713l5.481 1.484c.383-5.021-1.777-9.163-2.444-14.018-.372-2.708-4.972-2.082-4.788.648zM3801.772 437.9c-4.849-6.455-10.917-12.313-19.132-13.844-8.4-1.566-16.51 1.355-23.69 5.547l4.584 2.631c1.027-11.529-7.491-25.637-18.609-29.5-1.937-.673-3.43 1.683-2.541 3.305 2.376 4.333 6.464 7.11 9.624 10.83 3.8 4.473 5.82 9.468 5.433 15.365-.151 2.311 2.7 3.79 4.584 2.63 5.863-3.611 12.467-6.484 19.5-5.362s12.666 5.534 17.374 10.613c1.38 1.489 4.136-.532 2.871-2.215zM3795.792 394.422c7.83 2.58 9.387 8.827 4.677 15.263-1.6 2.182 1.035 4.368 3.113 4.05a28.58 28.58 0 0115.473 1.962c4.352 1.823 7.762 5.054 11.927 7.11 1.935.955 4.294-1.037 3.079-3.078-5.991-10.06-21.309-13.111-31.945-11.311l3.114 4.05c6.559-9.266 2.784-19.28-8.615-21.029a1.548 1.548 0 00-.823 2.983zM3861.675 389.311c-7.01-5.6-14.916-8.517-23.828-6.206l3.79 4.931c6.513-9.022 1.692-21.825-5.568-28.985a2.787 2.787 0 00-4.623 2.691c2.3 8.2 9.11 14.062 4.395 22.906-1.273 2.387.878 5.984 3.79 4.931 6.718-2.429 13.421-.3 19.261 3.34 2.162 1.348 4.853-1.955 2.783-3.608zM3890.167 367.491c1.778 4.93 4.919 8.512 3.493 14a2.735 2.735 0 003.335 3.335c5.536-1.758 11.262-.383 16.928.054 2.313.178 2.392-3.057.511-3.776-6.583-2.515-11.993-4.073-18.88-1.506q1.666 1.668 3.335 3.335c1.112-7.247-2.334-10.725-5.3-16.884-.911-1.9-4.149-.559-3.427 1.445zM3954.845 373.233c-2.851-1.422-5.754-3.079-8.869-3.864-3.266-.823-6.176.37-9.36.028l3.3 4.332a16.067 16.067 0 00.847-8.715c-.446-2.476-1.652-4.375-2.5-6.663-.76-2.058-4.323-2.646-4.791 0-.822 4.647 1.464 9-.159 13.558-1.129 3.17 3.527 5.894 5.72 3.33 3.089-3.612 10.91.382 14.256 1.678 2.123.822 3.588-2.669 1.553-3.684zM3904.02 422.86a8.4 8.4 0 00.679 3.914c.7 1.9.757 2.3-.393 4.16-1.268 2.056 1.823 4.581 3.421 2.639 4.547-5.527 9.079.315 13.231 2.877 1.879 1.16 3.643-1.4 2.272-2.945-2.174-2.449-4.845-5-8.093-5.914-3.7-1.037-6.28 1-9.529 2.342l2.119 3.64a6.449 6.449 0 002.245-5.6c-.281-1.892-1.971-3.23-2.108-5.111a1.923 1.923 0 00-3.844 0zM4053.59 431.008c-5.216-.248-9.888-2.936-15.216-2.421l2.069 3.605c1.719-3.243.938-5.877 1.055-9.332.077-2.258-2.958-2.35-3.683-.5-.938 2.4-.375 5.183-1.51 7.412-.723 1.42.123 3.866 2.069 3.606 5.213-.7 10.037 1.435 15.216 1.285a1.829 1.829 0 000-3.656zM3967.794 431.2a32.778 32.778 0 01-10.881-2.78l.979 1.272-.039-.268c-.185-1.293-1.561-1.9-2.669-2.033l-.618-.075 2.405 4.189a8.791 8.791 0 001.151-6.818c-.527-1.775-1.808-3.191-2.513-4.859-.772-1.825-3.215-.94-3.77.493-1.193 3.083 1.7 5.539.323 8.374a2.824 2.824 0 002.4 4.189l.618.045a2.685 2.685 0 002.39-1.372l.1-.224-1.838 1.054c2.1-.117 4.363.864 6.391 1.331a24.357 24.357 0 005.564.763 1.641 1.641 0 000-3.281zM4003.709 413.519a19.4 19.4 0 01-4.737-1.3c-1.327-.486-3.352-.783-4.422-1.705v4.34a9.9 9.9 0 003.107-7.9 10.068 10.068 0 00-.9-3.456c-.125-.28-1.087-2.239-.763-1.218-.576-1.817-3.316-2.433-4.284-.56a5.883 5.883 0 00-.308 3.694 7.085 7.085 0 01-1.671 5.718c-1.8 2.426 1.773 5.974 4.2 4.2 1.4-1.022 3.678.039 5.28.391a18.8 18.8 0 004.5.512 1.36 1.36 0 000-2.719zM2994.653 792.832a24.165 24.165 0 003.436 3.868c2.1 2.084 2.215 3.33 1.668 6.414a2.62 2.62 0 003.169 3.169 204.8 204.8 0 0121.117-2.124c2.328-.135 3.172-3.88.586-4.327-7.753-1.34-15.425.089-23.073 1.483l3.169 3.169c.472-2.992.9-6.094-1.076-8.652-1.667-2.156-4.483-3.057-6.346-5.045-1.294-1.381-3.713.428-2.65 2.045zM2994.738 811.668c-7.135-2.374-13.177-3.1-19.815 1l4.717 2.707c-.226-5.433-2.856-9.96-5.328-14.671-1.244-2.371-4.411-1-4.63 1.254-.471 4.874 3.165 8.712 3.688 13.417.23 2.073 2.591 4.283 4.717 2.707 5.121-3.8 9.487-3.314 15.4-1.892a2.346 2.346 0 001.247-4.52zM3156.412 662.289c-.255 4.564 2.274 7.946-.455 12.2a2.24 2.24 0 003.043 3.043c2.543-1.589 4.884-2.829 7.955-2.809 2.73.018 5.546.856 8.2 1.434 2.08.452 3.6-2.528 1.518-3.6-6.961-3.581-14.2-3.848-20.372 1.48l3.493 2.695c1-2.258 1.736-4.48 1.25-6.967-.507-2.6-1.865-4.768-2.01-7.48a1.313 1.313 0 00-2.625 0zM3266.89 674.177c-3.161 1.02-6.383.729-9.6 1.356-3.185.621-5.383 2.543-7.273 5.081l3.664 2.141c2.882-6.123 1.252-10.79-.643-16.9a1.6 1.6 0 00-3.131.424c.086 5.179 2.741 9.323.11 14.334-1.059 2.017 1.738 4.529 3.332 2.57 3.8-4.663 9.513-3.083 14.687-4.849 2.606-.889 1.514-5.017-1.146-4.158zM3303.378 672.573c-3.061.03-5.771-1.6-8.8-1.532a9.785 9.785 0 00-7.616 4.594 1.568 1.568 0 00.556 2.121l.051.029a1.572 1.572 0 001.871-.242c2.241-2.445 1.59-8.243 1.237-11.263a1.278 1.278 0 00-2.359-.639c-1.9 3.224-.543 6.829-.911 10.359l.725-1.263-.563.382 1.871.241-.043-.039v2.193c2.186-2.1 4.212-3.054 7.15-2.364a21.7 21.7 0 006.831.8c2.135-.17 2.2-3.4 0-3.375zM2669.363 650.04c7.138-2.8 11.668 1.358 12.8 8.391.3 1.844 2.858 2.719 4.323 1.759 6.767-4.433 12.569-4.519 20.317-3.491 2.407.319 3.174-3.4 1.207-4.455-7.775-4.167-17.451-1.587-24.495 2.864l4.323 1.759c-1.519-10.437-10.517-15.429-19.844-10.083-1.695.972-.553 4.012 1.373 3.256zM2764.157 694.717c-3.142-2.649-6.656-4.756-10.853-5.067-4.558-.337-7.887 1.625-11.806 3.572l4.926 2.827c.062-4.758-2.744-8.38-5.646-11.872-1.777-2.138-4.747-.185-4.961 2.055-.408 4.264 2.969 6.877 4.177 10.687.665 2.1 3.861 3.511 5.471 1.445 4.252-5.456 11.259-3.8 16.136-.334 1.937 1.376 4.389-1.769 2.556-3.313zM2539.2 706.674c6.923-.094 16.585 3.538 17.1 11.78.042.672.945 1.212 1.457.6 4.878-5.788 16.5-5.895 23.339-5.435 1.9.128 1.813-2.689 0-2.906-7.746-.925-19.727.384-24.68 7.307l1.591.43c.051-5.186-.175-9.243-4.418-12.809-3.987-3.351-9.332-4.184-14.393-3.94-3.175.153-3.217 5.012 0 4.969zM2571.122 678.887c-6.178.7-11.285-.746-16.811 2.894l2.946 2.946c3.249-5.919-.937-9.16-4.266-13.526-1.163-1.526-3.993-1.238-3.931 1.064a8.357 8.357 0 002.469 5.5c2.009 2.157 1.923 2.821 1.715 5.877-.139 2.053 2.362 2.583 3.677 1.522 4.344-3.5 9.432-2.514 14.563-3.606 1.472-.313 1.175-2.845-.362-2.67z"/>
</svg>
