<svg xmlns="http://www.w3.org/2000/svg" xmlns:xlink="http://www.w3.org/1999/xlink" viewBox="0 0 5120 2160"><defs><linearGradient id="c" x1="2693.896" y1="1308.935" x2="2725.82" y2="662.477" gradientUnits="userSpaceOnUse"><stop offset="0" stop-color="#fff"/><stop offset=".133" stop-color="#f6f9f9"/><stop offset=".347" stop-color="#dfe7e7"/><stop offset=".614" stop-color="#b9cacb"/><stop offset=".921" stop-color="#85a3a4"/><stop offset="1" stop-color="#769899"/></linearGradient><linearGradient id="a" x1="2292.135" y1="1178.656" x2="855.556" y2="45.355" gradientUnits="userSpaceOnUse"><stop offset="0" stop-color="#eef7f6"/><stop offset="1" stop-color="#769899"/></linearGradient><linearGradient id="d" x1="1363.265" y1="1242.843" x2="1363.265" y2="412.821" xlink:href="#a"/><linearGradient id="e" x1="482.714" y1="1260.259" x2="466.752" y2="166.864" xlink:href="#a"/><linearGradient id="f" x1="3886.598" y1="1027.727" x2="3878.617" y2="62.031" xlink:href="#a"/><linearGradient id="g" x1="4909.856" y1="1031.964" x2="4917.838" y2="225.885" xlink:href="#a"/><linearGradient id="b" x1="1688.859" y1="1819.877" x2="5280.992" y2="1819.877" gradientUnits="userSpaceOnUse"><stop offset=".006" stop-color="#c2922e"/><stop offset=".253" stop-color="#fdf9ce"/><stop offset=".304" stop-color="#f7eebd"/><stop offset=".406" stop-color="#e6d190"/><stop offset=".547" stop-color="#cca348"/><stop offset=".596" stop-color="#c2922e"/><stop offset=".871" stop-color="#eed688"/><stop offset="1" stop-color="#fdf9ce"/></linearGradient><linearGradient id="h" x1="2351.731" y1="1251.894" x2="5342.958" y2="1251.894" xlink:href="#b"/><linearGradient id="i" x1="1811.959" y1="2107.027" x2="4166.093" y2="2107.027" xlink:href="#b"/><linearGradient id="j" x1="2042.296" y1="2157.651" x2="4035.376" y2="2157.651" xlink:href="#b"/><linearGradient id="k" x1="2185.009" y1="2144.859" x2="3566.163" y2="2144.859" xlink:href="#b"/><linearGradient id="l" x1="285.039" y1="1793.397" x2="1513.24" y2="1793.397" xlink:href="#b"/><linearGradient id="m" x1="-263.176" y1="1865.102" x2="1044.651" y2="1865.102" xlink:href="#b"/><linearGradient id="n" x1="1028.89" y1="2043.556" x2="1743.515" y2="2043.556" xlink:href="#b"/><linearGradient id="o" x1="4535.552" y1="1434.313" x2="5365.844" y2="1434.313" xlink:href="#b"/><linearGradient id="p" x1="4502.343" y1="1446.484" x2="5243.365" y2="1446.484" xlink:href="#b"/><linearGradient id="q" x1="3573.733" y1="1500.198" x2="4426.268" y2="1500.198" xlink:href="#b"/><linearGradient id="r" x1="3634.233" y1="1490.792" x2="4438.029" y2="1490.792" xlink:href="#b"/><linearGradient id="s" x1="443.164" y1="1403.625" x2="944.702" y2="1403.625" xlink:href="#b"/><linearGradient id="t" x1="436.247" y1="1413.543" x2="925.025" y2="1413.543" xlink:href="#b"/><linearGradient id="u" x1="2870.026" y1="1651.269" x2="3674.942" y2="1651.269" xlink:href="#b"/><linearGradient id="v" x1="2841.434" y1="1677.336" x2="3704.257" y2="1677.336" xlink:href="#b"/><linearGradient id="w" x1="937.916" y1="1856.285" x2="1591.657" y2="1856.285" xlink:href="#b"/><linearGradient id="x" x1="2319.826" y1="1260.393" x2="5308.317" y2="1260.393" xlink:href="#b"/><linearGradient id="y" x1="-524.955" y1="2137.344" x2="1366.46" y2="2137.344" xlink:href="#b"/><linearGradient id="z" x1="-311.529" y1="2131.071" x2="922.623" y2="2131.071" xlink:href="#b"/><linearGradient id="A" x1="4258.977" y1="2112.613" x2="5335.066" y2="2112.613" xlink:href="#b"/><linearGradient id="B" x1="4412.796" y1="2128.76" x2="5352.421" y2="2128.76" xlink:href="#b"/><linearGradient id="C" x1="4579.607" y1="2148.731" x2="5223.739" y2="2148.731" xlink:href="#b"/><linearGradient id="D" x1="3305.805" y1="1188.473" x2="3305.805" y2="733.556" xlink:href="#a"/></defs><g data-name="Layer 1"><path d="M2722.305 1164.01q1.515-1.77 3.24-3.66c21.54-23.52 70.05-75.64 102.96-77.77 42.28-2.74 42.29 39.17 61.2 69.2 11.2 17.78 42.45 42.56 55.64 60.92-29.13 21.52-42.33 49.78-54.99 106.04-17.49 77.76-57.52 135-113.52 192.19-40.49 41.35-89.54 96.89-125.34 148.04q-7.275-.99-14.51-2.01c-61.44-8.61-121.88-27.19-183.56-35.77-6.85-.95-14.04-2.24-21.46-3.75 57.08-38.16 111.22-147.28 141.6-206.15 20.57-39.85 93.18-153.34 112.55-180.36 21.19-29.53 13.04-40 36.19-66.92z" fill="url(#c)"/><path d="M2573.3 1081.22q8.055 5.775 15.8 11.92c38.94 31.02 83.88 61.84 133.21 70.87-23.15 26.92-15 37.39-36.19 66.92-19.37 27.02-91.98 140.51-112.55 180.36-30.38 58.87-84.52 167.99-141.6 206.15-14.76-3-30.47-6.85-46.38-10.62-17.29-44.69-34.77-88.1-67.86-125.02-42.08-46.94-63.08-106.59-103.75-152.2-31.43-35.24-88.39-55.14-114.78-92.63-36.93-52.44-68.8-223.76-158.45-180.3-13.23 27.81-29.26 59.21-44.91 91.87-37.3-37.03-77.62-70.37-107.25-113.86-38.78-56.9-72.44-79.13-134.86-116.86-34.12-20.62-85.39-35.8-115.63-58.15a96.727 96.727 0 01-13.45-12.13c25.24-23.55 49.75-48.43 77.72-68.18 42.69-30.16 76.76-77.7 119.32-105.63 54.22-35.57 85.87-29.83 122.7 17.58 35.71 45.96 68.26 85.35 110.86 124.09 19.46 17.71 2.28 34.33 40.63 28.49 25.16-3.84 38.96-32.33 55.82-48.58 53.95-52.01 58.47-37.52 114.19-.41 10.96 7.3 53.61 33.63 66.61 36.85 24.93 6.18 48.61-13.44 71 1.5 15.72 10.49 35.47 61.38 56.8 79.11 25.18 20.93 41.63 41.62 63.29 63.83 41.525 42.57 99.675 69.08 149.71 105.03z" fill="url(#a)"/><path d="M1524.645 847.54a96.727 96.727 0 0013.45 12.13c30.24 22.35 81.51 37.53 115.63 58.15 62.42 37.73 96.08 59.96 134.86 116.86 29.63 43.49 69.95 76.83 107.25 113.86-27.41 57.16-53.68 118.16-61.83 170.45-8.26 52.97 1.59 92.04-21.74 142.69-13.28 28.83-28.06 58.36-39.04 88.77q-2.37-5.13-4.86-10.11c-31.22-62.58-72.53-97.34-110.11-153.09-34.13-50.64-63.53-98.29-84.1-155.65-20.64-57.56-45.2-78.96-84.69-122.78-39.09-43.37-57.42-92.97-108.16-57.98-39.7 27.38-69.74 89.21-95.51 128.91-61.93 95.39-95.8 211.94-161.23 300.46-35.22 47.65-93.15 73.3-126.34 123.84-15.62 23.77-25.55 50.6-35 77.58-5.59-7.5-11.65-15.21-18.23-23.21-43.42-52.85-59.16-155.45-75.65-223.33-9.18-37.79-1.45-71.62-13.24-108.78-5.52-17.41-15.28-33.63-25.41-49.81 75.44-30.2 155.19-103.55 196.96-151.12 15.98-18.2 34.57-45 47.49-64.49 15.22-22.95 19.69-41.42 34.54-64.69 27.36-42.89 84.38-71.05 122.9-105 59.25-52.21 112.21-206.08 212.68-147.77 39.31 22.82 49.6 72.01 79.38 104.11z" fill="url(#d)"/><path d="M620.585 1066.55a214.553 214.553 0 0110.21 24.61c-3.77 14.4-7.71 28.56-13.02 41.65-14.72 36.33-35.79 47.04-58.39 74.54-33.28 40.52-60.89 116.27-77.7 183.28-29.46-46.83-57.33-93.35-101.98-127.25-20.13-15.27-34.84-35.78-48.33-57.2 12.49-20.38 25.8-40.63 33.93-61.55 12.02-30.95 15.65-64.98 26.09-93.53 20.61-56.4 60.63-121.43 90.31-175.56 89.71 23.95 48.98 48.91 86.14 119.08 14.655 27.68 37.45 41.17 52.74 71.93z" fill="url(#e)"/><g opacity=".4" style="mix-blend-mode:multiply" fill="#edd4d8"><path d="M2350.564 1419.668c-5.236 9.8-4.266 25.634 11.362 18.156 16.174-7.741-1.265-28.344-11.362-18.156zM2323.391 1360.794c-13.031-4.655-5.735-21.734 5.719-20.177 17.999 2.448 4.35 33.012-5.719 20.177zM2317.73 1321.166c-1 7.378 6.453 13.236 11.346 5.712 5.492-8.446-8.892-16.355-11.346-5.712zM2291.689 1284.936c.112-5.432 7.2-12.914 11.143-4.583 3.69 7.798-10.799 13.807-11.143 4.583zM2269.045 1256.631c1.985 5.981 12.661 8.936 15.249 1.64 3.049-8.6-15.87-13.123-15.249-1.64zM2254.326 1245.309c.521-4.727 8.386-14.253 11.273-5.093 2.282 7.241-8.61 10.292-11.273 5.093zM2267.913 1215.872c-3.3 6.876 4.824 11.3 10.1 6.236 6.612-6.339-3.624-13.301-10.1-6.236zM2228.286 1038.116c-9.533-8.9 6.3-28.541 17.571-16.9 14.992 15.501-9.857 29.898-17.571 16.9zM2386.794 1104.916c-3.293 5.986-10.168 14.044-5.755 21.053 4.241 6.737 18.3 7.012 24.434 3.768 28.485-15.062-11.717-43.56-18.679-24.821zM2522.658 1200.021c-14.189-7.439 5.655-34.082 19.81-23.37 5.625 4.258 5.147 17.789-.074 23.379-5.863 6.276-14.194 2.785-19.736-.009zM2115.065 1059.628c-4.622 9.774 7.235 18 15.157 11.2 12.82-11.013-12.422-24.042-15.157-11.2zM2118.462 1035.851c-1.948 6.523 5.059 14.909 11.282 7.726 6.485-7.486-8.209-16.777-11.282-7.726zM2600.78 879.607c1.145-17.155 17.106 11.059.2.935-.336-1.171-.045-2-.2-3.2M2624.557 880.74c-8.564-7 .832-22.27 9.664-18.589 11.841 4.935.142 30.432-9.664 16.324M2666.448 861.492c-12.52 4.968-12.909 25.051 3.677 23.8 23.99-1.802 7.786-34.611-3.677-23.8zM2684.563 922.631c-13.081-9.886-.9-27.292 11.319-17.886 15.176 11.681-9.693 30.332-11.319 17.886zM2759.289 1022.265c-4.357 8.289 8.08 15.077 12.283 7.976 5.766-9.741-9.372-11.381-12.283-7.976zM2790.99 1104.916c-8.145-8.382 6.649-16.4 12.41-7.869 7.126 10.553-10.922 15.745-12.41 7.869zM2856.658 1180.773c7.328-4.009 21.395-3.4 15.932 9.113-4.266 9.77-19.536 7.713-19.558-3.357-5.012 6.844-13.923 4.967-14.6-4.059-.778-10.493 14.503-15.97 18.226-1.697zM2862.319 1235.119c-9.327-16.657 13.228-33.1 20.209-14.745 5.156 13.562-13.235 28.281-20.209 14.745zM2912.136 1243.045c-10.767 9.265-7.509 29.881 8.1 30.62 28.192 1.335 20.447-38.765-8.1-30.62zM2900.814 1072.082c-14.277 11.985 2.913 28.7 15.625 20.122 15.502-10.467-11.021-35.804-15.625-20.122zM2929.119 1049.438c-14.919-8.529-10.871-31.433 6.185-24.817 22.212 8.616.527 36.103-6.185 24.817zM2871.377 1001.885c-1.822 7.591 6.044 15.772 12.166 8.77 7.063-8.078-5.586-19.407-12.166-6.5M3088.76 1074.346c-7.009 7.413 5.179 15.268 11.35 8.206 6.831-7.816-7.71-21.21-11.35-8.206zM3122.726 1064.157c-12.02-.021-8.563-17.95 1.074-18.277 18.311-.621 5.357 30.694-1.074 18.277zM3156.692 1065.289c-6.544 8.219-1.573 22.411 10.754 19.254 15.824-4.051.654-32.827-10.754-19.254zM3226.889 1031.323c-7.309-2.174-14.069-4.036-14.728-11.89-.783-9.335 15.142-24.656 24.633-22.435 22.106 5.172 7.314 43.895-9.905 34.325zM3275.573 1057.363c-2.2 6.964 4.194 17.933 9.391 7.984 4.503-8.621-9.84-15.485-9.391-7.984zM3228.021 974.712c-8.545-4.422-1.129-15.551 6.269-13.092 11.555 3.842.86 20.198-6.269 13.092zM3155.56 1213.607c-16.319 6.1.879 28.151 13.415 17.882-1.56-3.466-.037-5.479-.224-8.933 11.638-.549 16.468-15.361 2.323-17.207-10.696-1.395-7.574 11.699-15.514 8.258zM3187.261 1314.373c1.452-15.9 22.725-11.835 21.782 3.423-.974 15.771-30.018 3.765-21.782-3.423z"/></g><path d="M5196.205 527.05v312.18c-60.92-46.78-138.13-93.42-160.93-109.11-42.63-29.34-86.85-97.28-147.67-68.09-57.77 27.72-104.78 100.4-162.43 135.93-34.22 21.08-68.45 43.21-101.41 67.03-13.29-15.17-28.22-28.18-44.76-37.85-30.19-17.64-39.36-1.58-59.71-47.67-12.75-28.86-18.32-62.43-33.41-89.92-48.05-87.54-94.71 14.73-127.43 74.04-19.24 34.88-41.78 63.19-65.27 92.27-29.53-20.25-61.54-24.61-95.56.63-58.42 43.35-96.71 122.21-147.58 172.78-54.3 53.98-84.25 101.24-140.11 139.05-102.82 8.46-210 76.17-236.52 100.52-14.81 13.6-30.42 25.01-46.16 36.01-19.64-17.6-48.45-32.7-64.22-41.71-32.85-18.76-62.48-22.29-90.78-60.61-40.91-55.38-66.33-120.38-111.48-173.12-67.64-79-98.48-15.79-171.94 5.56-29.53 8.58-62.57-11.05-89.37.72-19.98 8.78-53.81 61.18-73.05 77.79-37.35 32.25-28 56.86-42.06 83.09a13.31 13.31 0 00-12.19.02 183.859 183.859 0 00-26.82 16.11c-13.19-18.36-44.44-43.14-55.64-60.92-18.91-30.03-18.92-71.94-61.2-69.2-32.91 2.13-81.42 54.25-102.96 77.77q-1.725 1.89-3.24 3.66c-49.33-9.03-94.27-39.85-133.21-70.87q-7.725-6.15-15.8-11.92c38.75-28.44 76.39-59.16 105.17-94.63 44.09-54.3 83.21-115.48 128.76-171.46 56.55-69.5 110.24-37.88 180.77-78.36 43.33-24.87 124.59-112.82 178.38-87.12 28.91 13.82 61.12 74.4 82.59 99.08 25.41 29.2 58.5 48.86 84.75 78.33 56.99-35.55 135.33-71.47 203.5-86.13 35.34-7.59 56.92 5.63 93.55 11.81 36.84 6.22 63.31-2.18 99.84-5.37 16.75-1.47 39.85 5.02 55.76 1.21 26.35-6.3 16.41-8.52 37.89-22.72 38.19-25.23 65.21-44.48 105.68-58.05 32.81-11.01 65.21-18.84 99.71-27.06 42.54-10.14 60.65-32.08 97.12-51.64 30.54-16.38 52.18-8.53 82.45-22.8 33.67-15.87 29.97-43.42 77.15-42.48 65.8 1.31 113.1 63.35 170.12 79.91 56.18 16.32 120.6 27.48 178.19 37.67 60.77 10.75 118.58-3.37 180.9-11.04 70.94-8.74 119.77-76.05 191.29-79.61 47.11-2.35 124.935-6.8 189.34-23.71z" fill="url(#f)"/><path d="M5196.205 839.23v333.7c-40.8-33.94-84.22-67.5-96.96-75.51-33.04-20.79-32.85-20.21-57.31-9.01-26.05-24.34-54.69-48.84-73.2-59.48-36.56-21.01-66.02-16.44-103.87-45.94-64.17-50.02-113.51-23.06-170.83 18.85q-4.02-9.99-7.29-20.17c-13.14-40.97-34.22-83.87-62.98-116.68 32.96-23.82 67.19-45.95 101.41-67.03 57.65-35.53 104.66-108.21 162.43-135.93 60.82-29.19 105.04 38.75 147.67 68.09 22.8 15.69 100.01 62.33 160.93 109.11z" fill="url(#g)"/><path d="M5280.144 1676.027c-273.789-34.579-551.73-43.47-827.348-32.165q-205.275 8.421-409.461 33.019-47.255 5.7-94.405 12.258c-22.475 3.155-45.16 7.78-65.328 18.668-30.6 16.521-45.086 49.152-22.778 79.214 24.726 33.319 89.06 61.252 57.558 112.076-14.444 23.3-42.107 37.783-67.037 46.958-29.31 10.787-59.69 19.13-90.12 26.084-127.091 29.046-258.631 27.639-387.726 15.277-133.038-12.738-264.559-37.213-396.76-56.212-131.1-18.843-262.672-29.967-395.218-26.116-134.414 3.9-264.856 24.969-396.612 50.152-70.467 13.468-140.665 21.21-212.081 10.742-64.5-9.454-126.809-29.453-188.927-48.585-30.694-9.454-61.507-18.494-92.654-26.348-2.4-.605-3.418 3.08-1.021 3.706 123.653 32.289 244.96 86.324 375.234 80.742 66.155-2.834 130.834-18.306 195.621-30.74a2007.589 2007.589 0 01209.38-28.871c135.418-11.436 271.529-8.67 406.509 6.787 132.871 15.216 264.357 40.219 396.883 57.935 125.6 16.791 253.177 27.246 379.628 13.72 62.562-6.692 124.525-19.31 184.228-39.3 35.137-11.764 85.076-32.619 91.876-74.51 6.543-40.309-34.9-62.126-58.505-86.726-19.192-20-26.028-47.941-4.906-69.641 17.253-17.725 43.906-25.556 67.578-29.886 69.335-12.685 140.711-18.749 210.81-25.824q101.333-10.226 203.015-16.483a5215.442 5215.442 0 01831.316 15.192c33.771 3.327 67.517 6.965 101.251 10.655 1.145.125 1.117-1.64 0-1.781z" fill="url(#b)"/><path d="M2884.188 1650.765c-59.144-10.089-119.047-13.834-178.905-8.908-44.185 3.637-87.544 12.336-131.256 19.322-40.184 6.422-80.865 9.974-121.1 1.874-23.616-4.755-47.755-12.673-68.823-24.444-15.067-8.418-30.519-21.393-30.807-40.206-.4-25.919 24.181-41.463 45.954-48.194 30.731-9.5 63.9-13.856 95.482-19.813 31.46-5.934 63.013-11.4 94.68-16.11q53.6-7.978 107.512-13.523c26.712-2.712 52.674-4.261 78.26-12.994 24.289-8.29 79.491-31.555 66.782-66.678-7.736-21.38-33.9-29.586-52.085-38.713-15.084-7.57-31.291-19.134-37.008-35.777-7.2-20.976 6.732-39.9 24.8-49.223 33.21-17.135 70.534-28.916 105.328-42.5 33.758-13.181 67.742-25.852 102.1-37.388 68.968-23.157 139.573-41.96 211.385-53.856 154.7-25.627 312.169-15.989 468.093-11.664 60.331 1.673 126.026 8.38 184.676-9.719 23.3-7.191 45.441-19.325 60.893-38.591 18.2-22.7 22-52.026 32.569-78.349 23.87-59.473 85.151-86.763 143.291-102.179 68.946-18.281 140.767-28.455 211.2-39.193 307.38-46.862 619.524-57.518 929.459-33.3q57.729 4.51 115.308 10.7c1.32.141 1.305-1.917 0-2.062a3966.652 3966.652 0 00-953.312 9.412q-115 15.06-229 36.752c-57.126 10.856-118.425 21.6-167.022 55.762-21.436 15.068-39.034 34.867-49.565 59-13.272 30.415-17.06 64.218-41.2 89-44.262 45.45-118.639 42.686-177.049 41.893-157.464-2.138-315.53-14.617-472.55 3.224-147.566 16.766-288.911 64.406-426.133 119.482-24.854 9.976-62.454 17.794-75.026 44.663-9.921 21.2 1.682 42.094 18.48 55.543 20.05 16.053 61.668 22.275 69.111 50.472 6.262 23.721-24.539 41.372-41.763 49.877-24.633 12.162-50.39 17.731-77.54 20.338q-53.344 5.121-106.42 12.66c-65.561 9.407-130.766 22.05-195.429 36.345-25.1 5.549-54.732 14.592-63.847 41.779-7.6 22.664 7.8 40.709 26.152 51.862 35.377 21.494 79.779 31.105 120.826 31.408 40.267.3 80-7.967 119.5-14.792 52.837-9.131 105.89-15.168 159.6-13.64a754.205 754.205 0 01104.324 10.721c.177.03.253-.241.075-.271z" fill="url(#h)"/><path d="M4154.648 2249.241c3.688 4.251 10.3 1.193 11.294-4.139 1.763-9.43-12.414-12.477-18.534-14.181q-62.28-17.347-124.95-33.312-125.256-32.136-251.31-61.045c-168.045-38.8-336.839-74.251-505.708-109.256-166.7-34.555-333.521-73.527-504.952-62.634-84.94 5.4-169.318 18.454-253.591 29.931q-129.993 17.7-259.9 36.05c-84.053 11.843-168.372 22.894-251.477 40.426-39.793 8.395-80.473 17.22-118.761 31.133-27.695 10.064-54.89 27.038-62.936 57.212a50.958 50.958 0 003.09 35.677c.182.383.741.049.566-.331-18.327-39.973 18.635-74.322 52.457-87.954 34.509-13.908 72.316-21.72 108.558-29.656 76.67-16.788 154.5-27.55 232.179-38.4q119.514-16.695 239.087-32.969c81.27-11.114 162.522-23.271 244.1-31.9 79.552-8.413 158.977-10.6 238.664-2.643 80.584 8.05 160.105 23.966 239.339 40.309 156.055 32.191 312.106 64.461 467.689 98.873 156.335 34.578 312.127 71.588 466.908 112.593q14.511 3.845 29.007 7.742c4.46 1.2 8.929 2.374 13.379 3.611 1.634.454 3.341.836 4.946 1.4l2.449 1.041q7.546 1.776-.206 11.03c-.874-.933-2.215.444-1.392 1.392z" fill="url(#i)"/><path d="M2238.117 2294.712a298.55 298.55 0 01-107.138-30.736c-29.2-14.8-58.166-33.493-74.842-62.513-7.427-12.924-13.133-28.634-10.418-43.741 3.243-18.043 18.3-28.275 34.957-32.973 37.221-10.5 77.395-11.84 115.778-14.389 37.285-2.477 74.271-5.893 110.886-13.612 35.626-7.511 70.534-17.932 105.129-29.2 70.333-22.915 139.939-49.047 213.047-61.907 157.121-27.64 317.5-.258 471.63 32.332q226.492 47.892 448.459 114.592 221.71 66.615 437.356 151.556 26.265 10.347 52.441 20.916c2.575 1.041 3.687-3.126 1.147-4.158q-223.171-90.718-453.779-161.539-230.26-70.84-466.087-121.54c-155.952-33.5-317.722-63.222-477.276-38.651-76.728 11.817-149.473 38.633-222.918 62.742-36.255 11.9-72.827 23.159-110.149 31.234-40.007 8.656-80.519 12.042-121.273 14.9-20.209 1.419-40.422 2.9-60.52 5.5-17.314 2.238-35.706 4.323-52.12 10.56-23.761 9.027-34.5 30.722-28.5 55.166 6.508 26.511 26.139 48.541 48 63.834a294.6 294.6 0 0095.713 43.858 303.264 303.264 0 0050.472 8.331c.362.03.357-.529 0-.562z" fill="url(#j)"/><path d="M3565.93 2225.508c-50.871-27.328-105.367-46.848-159.308-67.087q-86.422-32.421-172.988-64.467c-56.035-20.868-111.895-42.893-169.526-59.047a815.464 815.464 0 00-167.583-28.229c-113.911-7.355-228.239 7.5-339.245 32.529-113.526 25.6-224.27 62.006-334.169 99.95-14.924 5.152-44.829 12.587-36.737 34.87 3.462 9.532 12.276 16.152 20.213 21.835 10.7 7.663 21.74 14.869 33.02 21.651a520.163 520.163 0 00145.729 59.924c12.8 3.09 25.773 5.477 38.787 7.478.941.145 1.354-1.289.4-1.446A527.268 527.268 0 012275.906 2236a495.876 495.876 0 01-66.666-39.955c-9.968-7.081-25.929-19-21.252-33.352 4.092-12.558 21.312-15.9 32.173-19.646 106.209-36.664 213.147-71.948 322.636-97.585 107.844-25.251 218.62-41.045 329.594-36.6a824.9 824.9 0 01165.057 22.989c55.119 13.635 108.485 33.345 161.7 52.922l166.733 61.336c54.262 19.961 109.4 38.36 162.19 62.045q18.968 8.51 37.382 18.162c.533.28 1.006-.523.474-.81z" fill="url(#k)"/><path d="M1512.965 1888.725c-38 4.668-76.5 7.61-114.765 4.625-36.565-2.853-74.29-11.742-103.956-34.353-16.229-12.369-28.429-28.3-37.94-46.254-10.3-19.45-18.919-39.79-34.56-55.735-26.782-27.3-65.182-38.5-101.994-44.026-46.142-6.924-93.416-7.489-139.932-10.2q-80.958-4.719-161.915-9.43c-22.062-1.284-44.4-3.747-66.515-2.536-15.785.864-32.276 3.512-46.2 11.41-13.537 7.678-21.561 19.962-23.52 35.364-1.528 12.013-.987 25-9.886 34.436-7.385 7.828-18.4 11-28.661 12.886-25.469 4.68-51.826 6.395-77.587 8.861q-39.762 3.805-79.628 6.443-80.323 5.3-160.874 5.564c-13.3.043-26.647.2-39.944-.234a.05.05 0 000 .1c54.111-.346 108.067-.168 162.147-2.794q79.8-3.876 159.232-12.856c11.677-1.321 23.455-2.395 35.046-4.366 8.636-1.469 17.521-3.706 24.9-8.624 17.937-11.953 11.966-33.194 18.5-50.783 13.19-35.476 62.885-35.692 94.029-33.846q81.567 4.836 163.131 9.751c50.372 3.007 101.014 4.731 151.258 9.464 39.319 3.7 81.372 10.971 113.766 35.186 18.155 13.57 29.723 31.842 39.761 51.84 9.285 18.5 18.738 36.447 33.646 51.1 52.9 51.981 137.869 50.1 206.287 42.77 8.763-.939 17.509-2.029 26.244-3.206.31-.042.24-.591-.075-.553z" fill="url(#l)"/><path d="M-262.59 1857.285q194.454 13.042 389.61 14.059 194.918 1.246 389.732-7.793c32.884-1.581 65.774-3.259 98.627-5.39 19.9-1.291 40.278-4.294 58.639-12.442 16.907-7.5 31.61-20.512 34.78-39.516 2.33-13.971-2.135-29.021 5.207-41.965 5.3-9.355 14.944-14.833 24.942-17.928 23.8-7.367 49.783-3.613 74.132-2.075q48.563 3.069 97.128 6.1c26.87 1.665 54.812 1.25 81.089 7.737 18.543 4.578 41.369 13.344 49.1 32.526 9.357 23.209-10.381 47.293-25.276 63.341-12.611 13.586-27.4 25.008-41.264 37.258-21.254 18.788-52.641 47.575-36.421 78.862 4.461 8.605 11.429 15.378 18.92 21.372.369.3.9-.2.531-.53-14.34-12.736-26.382-29.665-20.148-49.567 5.381-17.18 19.746-30.8 32.719-42.545 14.18-12.834 29.475-24.438 43.2-37.775a183.417 183.417 0 0017.474-20.229c7.465-9.727 14.816-20.442 16.194-32.955 4.588-41.644-49.533-54.953-80.858-57.7-31.706-2.784-63.636-4-95.407-5.918-31.177-1.881-62.522-4.9-93.75-5.488-18.754-.355-40.7 1.29-55.978 13.429a36.566 36.566 0 00-13.532 23.717c-1.874 12.874 1.24 26.053-3.724 38.481-8.231 20.608-31.064 30.161-51.157 34.994-26.225 6.308-53.866 6.077-80.653 7.429q-195.954 9.892-392.265 10.28c-130.859.14-261.549-3.262-392.282-8.754q-24.657-1.036-49.308-2.234c-.787-.038-.777 1.167 0 1.219z" fill="url(#m)"/><path d="M1028.958 2027.193c91.33 16.084 184.706 16.869 277.165 14.786 93.407-2.106 186.8-7.864 280.215-2.635 52.736 2.951 104.848 10.29 156.609 20.716 2.168.436 3.1-2.766.922-3.345-44.726-11.885-90.938-17.373-137.033-20.587s-92.372-3.567-138.57-2.737c-93.587 1.68-187.127 8.406-280.757 7.12-53.038-.729-106.171-4.684-158.5-13.5-.118-.02-.169.16-.05.181z" fill="url(#n)"/><path d="M4738.843 1321.926a751.123 751.123 0 00-119.854 11.874c-18.094 3.3-37.326 6.111-54.59 12.64-10.858 4.107-23.16 10.9-27.486 22.425-4.892 13.03 4.217 24.395 14.412 31.455 13.605 9.42 29.161 16.192 44.789 21.458 33.112 11.155 67.991 15.41 102.027 22.753 8.407 1.813 16.776 3.811 25.055 6.14 8.2 2.306 16.946 4.556 24.6 8.366 4.754 2.367 8.937 5.7 9.269 11.411.264 4.54-1.782 9.024-2.257 13.5a22.912 22.912 0 003.415 14.789c5.968 9.525 16.9 14.67 27.276 17.923 15.633 4.9 32.313 5.1 48.513 6.357 83.206 6.443 166.551 11.023 249.918 14.785q125.537 5.666 251.192 8.5c10.3.235 20.607.312 30.912.394 2.3.018 2.292-3.506 0-3.563-80.434-1.995-160.846-3.342-241.25-6.53-80.734-3.2-161.345-8.038-242.012-12.491q-30.355-1.675-60.7-3.616c-14.841-.93-29.612-1.665-43.57-7.317-12.463-5.047-24.684-14.916-21.678-29.824 1.359-6.739 5.121-13.506 1.132-20.091-3.215-5.308-9.36-7.764-14.942-9.728-31.781-11.181-65.434-15.44-98.387-21.709-32.308-6.146-67.572-14.024-94.534-33.959-7.08-5.235-13.68-12.656-13.137-22.042.411-7.1 4.935-12.977 10.319-17.26 12.779-10.165 29.177-13.536 44.7-17.075a809.448 809.448 0 01117.78-17.787q14.53-1.118 29.092-1.688a.047.047 0 000-.094z" fill="url(#o)"/><path d="M5244.065 1562.618c-77.4 5.4-155 7.733-232.574 5.922q-58.175-1.359-116.233-5.629c-19.347-1.423-38.666-3.136-57.975-5-17.664-1.7-35.463-3.008-52.994-5.826-14.092-2.264-28.337-5.711-40.885-12.727-13.84-7.739-21.4-19.311-27.846-33.378-3.008-6.569-6.279-13.194-11.62-18.21-4.859-4.562-11.04-7.422-17.333-9.421-15.229-4.836-31.279-6.984-46.656-11.414a377.846 377.846 0 01-95.483-42.551c-13.8-8.621-32.869-18.718-38.192-35.248-4.856-15.079 4.5-31.509 16.4-40.448 14.159-10.636 32.863-12.941 49.979-14.347 19.171-1.574 38.385-2.734 57.59-3.793q58.463-3.223 117.026-3.955 14.389-.18 28.781-.244c3.317-.018 3.324-5.175 0-5.156-40.692.226-81.387 1.552-122.022 3.7q-30.236 1.6-60.43 3.86c-17.757 1.33-36.289 1.811-53.386 7.27-13.877 4.431-26.8 12.845-33.516 26.167-6.154 12.209-6.113 26.278 2.239 37.454 9.53 12.751 25.545 21.3 38.98 29.25a389.874 389.874 0 0047.009 23.627 383.336 383.336 0 0049.737 17.089c8.57 2.3 17.216 4.218 25.907 5.993 8.171 1.67 16.455 3.466 23.886 7.408 16.041 8.51 18.458 25.57 27.89 39.409 7.368 10.81 18.441 18.255 30.391 23.207 13.468 5.581 27.968 8.251 42.353 10.177 18.586 2.486 37.268 4.414 55.939 6.129q60.4 5.546 121.033 7.928c80.736 3.174 161.883 2.587 242.491-3.236q14.765-1.066 29.513-2.321c1.071-.091 1.09-1.764 0-1.688z" fill="url(#p)"/><path d="M4243.756 1428.191a338.357 338.357 0 01110.131 20.395 317.218 317.218 0 0151.363 24.268c6.649 3.907 19.653 9.762 19.582 18.961-.076 9.78-15.791 14.75-23.082 17.713-34.153 13.881-71.518 16.67-108.021 16.716-40.124.051-80.293-1.912-120.4-3.1l-250.128-7.42-251.125-7.449c-18.688-.555-37.8-2.341-56.476-1.27-11.541.662-24.551 2.9-33.708 10.506a21.711 21.711 0 00-4.22 29.444c8.632 12.7 23.364 16.645 37.641 19.188 9.068 1.616 18.118 3.152 26.469 7.228 1.081.528 2.032-1.094.946-1.619-15.865-7.665-34.6-5.74-50.166-13.971-7.316-3.869-14.211-9.846-16.064-18.245a20 20 0 016.372-19.522c10.1-8.942 26.066-10.513 38.96-10.4 20.4.171 40.819 1.158 61.208 1.738l252.121 7.176 252.122 7.177c39.528 1.125 79.206 3.338 118.755 2.594 35.623-.67 71.912-4.887 104.569-20 5.862-2.713 13.32-5.706 16.143-12.037 2.64-5.92-.3-11.778-4.6-15.986-5.763-5.634-13.614-9.45-20.593-13.332q-12.326-6.855-25.229-12.6c-33.2-14.777-68.98-24.268-105.281-26.714-9.087-.612-18.189-.808-27.294-.656a.61.61 0 000 1.219z" fill="url(#q)"/><path d="M4249.124 1416.587a382.021 382.021 0 01102.716 18.925 388.386 388.386 0 0149.5 20.2c12.7 6.258 33.835 14.421 34.805 31.083 1.035 17.79-16.953 28.136-32.125 30.663-8.843 1.472-17.9 1.339-26.833 1.444q-14.449.171-28.9.308-57.3.542-114.608.557-114.61.029-229.209-2.054t-229.134-6.277q-28.884-1.058-57.761-2.25c-15.906-.656-32.3-2.425-48.131-.027-12.313 1.864-25.059 7.053-31.627 18.228-4.877 8.3-6.656 19.348-2.677 28.354a19.073 19.073 0 009.821 9.607c1.24.566 2.3-1.132 1.089-1.862-11.124-6.695-11.465-21.619-6.27-32.253 6.911-14.146 23.521-18.516 38.041-19.427 17.461-1.1 35.246.7 52.7 1.383q28.878 1.137 57.762 2.141 115.536 4.014 231.134 5.881t231.2 1.584q57.8-.141 115.6-.82c16.392-.192 34.391 1.283 49.989-4.749 11.1-4.294 20.945-13.96 22.463-26.208 1.664-13.419-8.7-22.561-19.293-28.634a334.683 334.683 0 00-45.043-21.046 376.026 376.026 0 00-99.288-23.569c-8.623-.851-17.271-1.384-25.932-1.654-.3-.01-.3.455 0 .468z" fill="url(#r)"/><path d="M454.43 1348.3c-10.864 4.252-13.225 17.385-9.825 27.51 4.8 14.28 20.7 20 34.173 22.65 20.594 4.043 41.887 5.707 62.78 7.383q33.246 2.668 66.619 3.36c89.86 2.021 179.7-3.832 269.56-1.466 12.257.322 24.54.685 36.776 1.484 9.482.619 21.934 2.191 26.426 11.993 4.51 9.846-2.026 21.637-10.356 27.07-9.6 6.262-21.819 7.26-32.933 8.243-1.54.136-1.584 2.52 0 2.437 15.761-.829 34.36-2.476 43.59-17.249 7.557-12.1 4.273-26.918-9.472-32.364-7.739-3.066-16.364-3.163-24.558-3.555q-17.186-.822-34.388-1.185c-22.626-.5-45.259-.484-67.888-.22-90.053 1.049-180.27 6.314-270.219-.649q-19.071-1.476-38.069-3.744c-10.66-1.286-21.663-2.387-31.752-6.3-9.566-3.711-18.238-10.438-20.607-20.86-2.138-9.4.525-20.455 10.193-24.357.11-.044.063-.225-.05-.18z" fill="url(#s)"/><path d="M454.383 1354.1c-10.289-1.58-16.958 8.074-17.994 17.322-1.506 13.432 9.17 22.6 20.622 27.247 7.844 3.184 16.238 4.728 24.527 6.245q15.621 2.859 31.354 5.044c20.73 2.9 41.556 5 62.431 6.5 85.758 6.193 171.867 3.317 257.65 8.989 23.785 1.572 48.191 2.838 71.681 7.075 7.337 1.324 23.981 7.811 14.9 17.535-3.5 3.747-8.716 6.389-12.934 9.239l-15.674 10.59c-1.832 1.238-.151 4.2 1.751 2.995 8.541-5.418 17.382-10.546 25.671-16.341 4.759-3.327 9.283-8.279 7.72-14.566-3.477-13.987-25.577-14.305-36.461-15.58-41.861-4.9-83.985-6.711-126.1-7.561-84.151-1.7-168.678.257-252.339-10.609-12.117-1.574-24.232-3.351-36.244-5.6-9.158-1.714-18.64-4.012-26.485-9.262-8.087-5.413-13.1-13.673-11.386-23.552 1.477-8.525 7.764-16.895 17.264-15.532.117.017.169-.162.049-.18z" fill="url(#t)"/><path d="M3629.953 1613.062c10.128-6.819 23.03-3.94 31.934 3.615 9.836 8.347 13.2 20.844 9.746 33.19-8.59 30.678-42.628 39.6-70.537 41.308-31.474 1.926-63.27 1.235-94.763.159-32.059-1.1-64.077-3.172-96.046-5.778-64.392-5.249-128.583-12.643-192.91-18.6-63.606-5.887-127.447-10.414-191.362-9.9-32.14.258-64.282 1.8-96.261 5.072q-11.907 1.216-23.778 2.758c-6.23.811-12.724 1.2-18.641 3.438-7.424 2.808-17.32 8.975-18.341 17.739-.42 3.605 1.212 6.511 3.937 8.76 1.279 1.055 3.089-.655 1.856-1.856-9.941-9.678 11.049-20.334 18.56-21.979 15.812-3.463 32.672-4.416 48.78-5.883 32.328-2.944 64.8-4.182 97.254-4.177 65.561.01 130.985 5.074 196.214 11.263 65.262 6.192 130.427 13.52 195.822 18.231 32.928 2.372 65.912 4.079 98.924 4.624q24.481.4 48.966-.1c14.661-.321 29.491-.585 43.915-3.492 23.825-4.8 48.895-20.28 52.3-46.489 2.536-19.491-13.431-38.98-33.865-37.591a23.6 23.6 0 00-12.371 4.554c-.674.487-.047 1.611.662 1.134z" fill="url(#u)"/><path d="M3668.055 1632.142c25.238-7.58 40.683 26.235 33.4 46.493-4.68 13.02-17.338 22.1-29.532 27.449-13.313 5.845-27.922 8.414-42.275 10.114-67.669 8.013-136.316 5.932-204.078.208-68.332-5.772-136.224-15.605-204.257-24.028-67.734-8.387-135.832-15.477-204.16-15.416a809.3 809.3 0 00-100.714 6.026q-24.537 3.1-48.808 7.962c-10.065 2.037-23.437 7.15-26.941 18.035-1.351 4.2-.118 7.96 2.915 11.03 1.536 1.555 3.837-.783 2.386-2.387-5.68-6.277 1.6-13.019 6.828-16.54 6.252-4.208 13.112-5.576 20.379-7.008q25.923-5.108 52.2-8.107a837.252 837.252 0 01102.589-5.109c68.988.556 137.689 8.058 206.081 16.544 69.2 8.587 138.324 18.29 207.907 23.318 34.222 2.473 68.518 3.756 102.83 3.085 32.616-.638 65.966-2.1 98.124-7.933 22.254-4.035 52.334-13.653 59.756-38.071 5.142-16.918-3.58-41.773-22.144-46.488a22.906 22.906 0 00-12.562.552c-.173.054-.1.324.074.271z" fill="url(#v)"/><path d="M937.725 1702.154c33.88 7.139 68.015 13.292 101.543 22a485.811 485.811 0 0147.017 14.548c7.3 2.707 13.847 5.492 19.91 10.475a97.037 97.037 0 0115.788 16.915c4.2 5.61 8.242 11.633 9.9 18.532 1.724 7.177.92 14.659-1.305 21.633-4.691 14.7-15.336 27.277-26.552 37.546-19.046 17.437-43.885 31.414-53.948 56.546-10.547 26.338 6.538 51.484 26.606 67.634 20.09 16.168 45.343 24.666 70.39 29.426 27.327 5.193 55.184 6.069 82.915 6.826l111.586 3.047c74.033 2.021 148.119 4.09 222.176 4.921l27.9.313c3.384.038 3.375-5.154 0-5.25q-110.552-3.114-221.18-4.267l-111.587-1.349c-30.575-.369-61.345.11-91.793-3.138-27.187-2.9-54.765-8.917-78.229-23.556-23.657-14.758-48.709-42.469-38.15-72.334 9.751-27.58 37.947-41.829 57.619-61.241 17-16.772 34.885-43.588 21.556-67.621-6.339-11.429-15.442-22.468-26.058-30.136-11.512-8.314-27.105-12-40.517-16.06-32.407-9.815-65.834-16.849-99.141-22.845q-12.933-2.33-25.869-4.642c-1.348-.244-1.942 1.79-.573 2.079z" fill="url(#w)"/><path d="M5307.232 899.1c-308.652-51.489-624.869-55.372-934.6-10.55-54.282 7.855-111.353 17.859-158.223 48.208-19.09 12.361-35.986 28.409-47.213 48.343-15.377 27.3-15.38 58.208-21.729 88.113-16.855 79.381-112.64 96.138-181.147 101.841-75.194 6.26-150.846-1.991-226-5.017a3547.266 3547.266 0 00-478.888 13.13c-44.961 4.282-89.187 8.057-132.764 20.07a933.416 933.416 0 00-119.2 41.71c-37.628 16.112-76.293 34.642-107.47 61.641-18.107 15.681-40.172 41.513-28.987 67.275 5.645 13 18.21 22.178 29.633 29.807 17.143 11.45 35.7 20.6 53.124 31.59 15.826 9.983 35.214 22.925 39.994 42.32 5.379 21.829-13.836 31.676-31.452 37.557-47.965 16.011-102.978 15.874-153.01 14.777-74.9-1.644-149.288-4.466-224.234-1.18-73.776 3.235-148.73 8.624-221.674 20.527-21.995 3.59-45.626 17.441-43.423 43.093 2.078 24.2 25.718 44.93 46.018 55.182 24.35 12.3 52.008 15.439 78.934 15.737a1.5 1.5 0 000-3c-33.093-.367-68.791-5.184-95.273-26.848-13.58-11.11-28.43-28.446-26.462-47.1 2.682-25.415 27.495-32.647 48.752-35.214 73.825-8.914 147.517-16.768 221.866-19.742 72.016-2.881 143.528-.035 215.5 1.545 47.9 1.051 98.57.383 145.111-12.282 24.559-6.683 53.237-20.538 39.891-50.6-14.183-31.945-57.232-47.145-84.869-64.3-14.435-8.959-33.347-20.621-37.49-38.467-3.328-14.335 3.512-28.642 12.029-39.764 23.186-30.274 60.856-49.768 94.442-66.059 71.6-34.732 149.411-61.149 228.671-69.9a3545.248 3545.248 0 01466.95-20.516c73.9 1.631 147.656 8.178 221.548 9.109 64.985.82 137.826-2.85 196.552-33.815 23.333-12.3 42.694-30.308 51.672-55.6 11.032-31.079 7.728-65.37 21.684-95.684 23.556-51.165 79.772-75.628 131.164-89.128 67.58-17.753 139.165-23.64 208.5-30.556q112.3-11.2 225.23-14.014a3033.514 3033.514 0 01459.082 23.376q58.651 7.479 116.969 17.267c1.889.315 2.7-2.576.8-2.893z" fill="url(#x)"/><path d="M1367.429 2262.648a978.184 978.184 0 01-209.091 6.883 964.074 964.074 0 01-106.377-13.937c-30.23-5.694-60.836-12.538-88.507-26.416-54.631-27.4-79.542-83.366-119.228-126.5-33.968-36.917-78.337-61.946-125.793-77.215-107.389-34.553-224.419-25.617-335.443-23.224l-427.806 9.223-425.921 9.181-52.769 1.138c-1.928.041-1.935 3.041 0 3l427.806-9.223 427.806-9.222c64.494-1.39 129.093-3.982 193.607-3.268 54.958.608 110.435 4.2 163.962 17.384 51.378 12.651 100.879 34.932 139.733 71.511 40.667 38.284 63.8 92.857 109.611 125.979 23.295 16.842 50.831 26.582 78.525 33.4 31.31 7.7 63.379 12.794 95.364 16.713a972.371 972.371 0 00207.767 3.075c15.895-1.473 31.744-3.367 47.551-5.588 1.9-.268 1.094-3.159-.8-2.893z" fill="url(#y)"/><path d="M-311.478 2046.117c97.272-9.951 195.116-10.455 292.8-10.688 97.244-.232 194.677-.333 291.571-9.615 78.846-7.554 157.823-15.546 237.119-10.492 76.015 4.845 152.795 22.1 217.243 64.313 65.167 42.684 106.735 111.291 169.825 156.289a244.642 244.642 0 0024.551 15.4c1.694.928 3.209-1.662 1.514-2.59-69.727-38.189-111.774-109.274-173.811-157.059-59.5-45.832-132.567-68.118-206.416-76.466-78.334-8.855-157.593-3.459-235.789 4.176-46.9 4.579-93.716 8.549-140.819 10.4-48.978 1.921-98 2.368-147.011 2.545-98.034.353-196.219-.364-294.021 7.439q-18.394 1.467-36.753 3.352c-1.9.194-1.922 3.2 0 3z" fill="url(#z)"/><path d="M5321.723 2039.54c.409 10.543 20.771 2.868 13.66-8.188-4.521-7.03-14.559-7.6-22.017-8.107q-20.553-1.389-41.113-2.687c-55.939-3.631-111.889-7.124-167.87-10.044-111.147-5.8-222.479-9.349-333.782-7.162-110.372 2.17-221.007 9.735-330.116 26.958-47.383 7.48-95.346 17.907-137.918 40.851-16.4 8.838-40.241 21.089-43.284 41.719-2.67 18.1 12.6 31.459 26.826 39.494 9.453 5.339 19.722 8.979 29.884 12.7q18.976 6.957 38.241 13.091 37.555 11.956 76.025 20.74a945.409 945.409 0 00157.315 22.236q19.677 1.106 39.386 1.381a1.5 1.5 0 000-3 943.874 943.874 0 01-293.031-51.245c-20.172-6.954-43.159-13.191-59.483-27.663-6.817-6.044-12.346-13.947-12.482-23.359-.161-11.1 7.324-20 15.5-26.621 17.814-14.413 40.041-24.563 61.349-32.556 21.371-8.017 43.527-13.779 65.871-18.342 48.47-9.9 97.958-15.637 147.139-20.637 51.369-5.222 102.906-8.713 154.494-10.818 103.052-4.206 206.258-2.89 309.293 1.144 51.8 2.029 103.575 4.744 155.326 7.8q38.535 2.277 77.057 4.764 19.512 1.25 39.022 2.526c11.881.775 24.953.16 36.547 3 4.127 1.011 12.648 4.794 10.016 10.465-1.151 2.481-8.664 6.482-8.855 1.558-.075-1.924-3.075-1.933-3 0z" fill="url(#A)"/><path d="M5352.743 2066.3q-141.521-21.771-284.637-30.383-143.639-8.607-287.661-3.791-143.812 4.809-286.759 23.047c-11.249 1.438-22.5 2.9-33.727 4.5-8.289 1.182-16.622 2.742-24.44 5.824-13.436 5.3-24.972 16.636-23.617 32.139 1.366 15.633 14.97 27.506 27.324 35.418 17.156 10.988 37.438 17.005 56.5 23.762a1390.341 1390.341 0 00269.64 66.134q15.985 2.259 32.017 4.151c1.914.227 1.9-2.775 0-3a1392.144 1392.144 0 01-263.951-57.678q-32.025-10.347-63.522-22.24c-17.1-6.457-34.706-14.228-46.7-28.627-5.231-6.281-9.09-14.116-8.32-22.482.824-8.962 6.462-16.392 13.973-21 16.06-9.848 37.6-10.358 55.73-12.729q138.135-18.065 277.529-23.554 138.747-5.469 277.611 1.555 139.387 7.059 277.757 26.734 17.24 2.457 34.451 5.11c1.889.29 2.7-2.6.8-2.893z" fill="url(#B)"/><path d="M5191.7 2090.8l30-11.158a1.507 1.507 0 00-.4-2.946q-105.364-.6-210.731-.708-105.06-.159-210.122-.127c-33.653.041-67.337.373-100.918 2.762-16.455 1.17-32.876 2.845-49.2 5.2-16.1 2.326-32.376 5.041-48.089 9.3-10.593 2.875-22.447 8.654-23.546 21-1.014 11.382 8.775 20.449 17.429 26.143 12.079 7.947 26.608 11.912 40.148 16.6q23.6 8.166 47.463 15.513a1443.54 1443.54 0 00195.562 45.575q12.026 1.932 24.083 3.66c1.888.271 2.7-2.619.8-2.893a1447.2 1447.2 0 01-191.621-40.92q-46.843-13.385-92.712-29.913c-12.2-4.4-25.085-9.557-33.393-20.063-3.581-4.527-5.864-10.226-4.324-16.008 1.688-6.336 6.881-10.418 12.64-12.976 6.36-2.825 13.4-4.136 20.154-5.611q11.986-2.615 24.093-4.625c16.4-2.745 32.93-4.709 49.5-6.122 32.922-2.809 65.983-3.446 99.01-3.589 67.962-.3 135.933-.02 203.9.066q102.173.132 204.345.6 12.773.064 25.543.137l-.4-2.947-30 11.158c-1.794.667-1.018 3.568.8 2.893z" fill="url(#C)"/><path fill="none" d="M0 0h5120v2160H0z"/><path d="M3627.255 1304.85c-21.01 14.7-42.23 28.7-62.05 46.27-28.92 25.65-62.56 49.32-96.34 70.24-38.24-57.73-50.77-150.63-125.58-136.66-36.13 6.75-54.02 23.96-97.41 21.59-44.03-2.41-56.55-14.18-92.81 10.48-10.96 7.45-20.6 17.26-29.95 27.73-5.12-19.19-12.42-36.93-26.88-48-16.08-12.33-40.98-6.48-59.25-21.05-11.99-9.56-30.99-68.76-52.63-78.88 14.06-26.23 4.71-50.84 42.06-83.09 19.24-16.61 53.07-69.01 73.05-77.79 26.8-11.77 59.84 7.86 89.37-.72 73.46-21.35 104.3-84.56 171.94-5.56 45.15 52.74 70.57 117.74 111.48 173.12 28.3 38.32 57.93 41.85 90.78 60.61 15.77 9.01 44.58 24.11 64.22 41.71z" fill="url(#D)"/><g opacity=".4" style="mix-blend-mode:multiply" fill="#edd4d8"><path d="M2350.564 1419.668c-5.236 9.8-4.266 25.634 11.362 18.156 16.174-7.741-1.265-28.344-11.362-18.156zM2323.391 1360.794c-13.031-4.655-5.735-21.734 5.719-20.177 17.999 2.448 4.35 33.012-5.719 20.177zM2317.73 1321.166c-1 7.378 6.453 13.236 11.346 5.712 5.492-8.446-8.892-16.355-11.346-5.712zM2291.689 1284.936c.112-5.432 7.2-12.914 11.143-4.583 3.69 7.798-10.799 13.807-11.143 4.583zM2269.045 1256.631c1.985 5.981 12.661 8.936 15.249 1.64 3.049-8.6-15.87-13.123-15.249-1.64zM2254.326 1245.309c.521-4.727 8.386-14.253 11.273-5.093 2.282 7.241-8.61 10.292-11.273 5.093zM2267.913 1215.872c-3.3 6.876 4.824 11.3 10.1 6.236 6.612-6.339-3.624-13.301-10.1-6.236zM2228.286 1038.116c-9.533-8.9 6.3-28.541 17.571-16.9 14.992 15.501-9.857 29.898-17.571 16.9zM2386.794 1104.916c-3.293 5.986-10.168 14.044-5.755 21.053 4.241 6.737 18.3 7.012 24.434 3.768 28.485-15.062-11.717-43.56-18.679-24.821zM2522.658 1200.021c-14.189-7.439 5.655-34.082 19.81-23.37 5.625 4.258 5.147 17.789-.074 23.379-5.863 6.276-14.194 2.785-19.736-.009zM2115.065 1059.628c-4.622 9.774 7.235 18 15.157 11.2 12.82-11.013-12.422-24.042-15.157-11.2zM2118.462 1035.851c-1.948 6.523 5.059 14.909 11.282 7.726 6.485-7.486-8.209-16.777-11.282-7.726zM2600.78 879.607c1.145-17.155 17.106 11.059.2.935-.336-1.171-.045-2-.2-3.2M2624.557 880.74c-8.564-7 .832-22.27 9.664-18.589 11.841 4.935.142 30.432-9.664 16.324M2666.448 861.492c-12.52 4.968-12.909 25.051 3.677 23.8 23.99-1.802 7.786-34.611-3.677-23.8zM2684.563 922.631c-13.081-9.886-.9-27.292 11.319-17.886 15.176 11.681-9.693 30.332-11.319 17.886zM2759.289 1022.265c-4.357 8.289 8.08 15.077 12.283 7.976 5.766-9.741-9.372-11.381-12.283-7.976zM2790.99 1104.916c-8.145-8.382 6.649-16.4 12.41-7.869 7.126 10.553-10.922 15.745-12.41 7.869zM2856.658 1180.773c7.328-4.009 21.395-3.4 15.932 9.113-4.266 9.77-19.536 7.713-19.558-3.357-5.012 6.844-13.923 4.967-14.6-4.059-.778-10.493 14.503-15.97 18.226-1.697zM2862.319 1235.119c-9.327-16.657 13.228-33.1 20.209-14.745 5.156 13.562-13.235 28.281-20.209 14.745zM2912.136 1243.045c-10.767 9.265-7.509 29.881 8.1 30.62 28.192 1.335 20.447-38.765-8.1-30.62zM2900.814 1072.082c-14.277 11.985 2.913 28.7 15.625 20.122 15.502-10.467-11.021-35.804-15.625-20.122zM2929.119 1049.438c-14.919-8.529-10.871-31.433 6.185-24.817 22.212 8.616.527 36.103-6.185 24.817zM2871.377 1001.885c-1.822 7.591 6.044 15.772 12.166 8.77 7.063-8.078-5.586-19.407-12.166-6.5M3088.76 1074.346c-7.009 7.413 5.179 15.268 11.35 8.206 6.831-7.816-7.71-21.21-11.35-8.206zM3122.726 1064.157c-12.02-.021-8.563-17.95 1.074-18.277 18.311-.621 5.357 30.694-1.074 18.277zM3156.692 1065.289c-6.544 8.219-1.573 22.411 10.754 19.254 15.824-4.051.654-32.827-10.754-19.254zM3226.889 1031.323c-7.309-2.174-14.069-4.036-14.728-11.89-.783-9.335 15.142-24.656 24.633-22.435 22.106 5.172 7.314 43.895-9.905 34.325zM3275.573 1057.363c-2.2 6.964 4.194 17.933 9.391 7.984 4.503-8.621-9.84-15.485-9.391-7.984zM3228.021 974.712c-8.545-4.422-1.129-15.551 6.269-13.092 11.555 3.842.86 20.198-6.269 13.092zM3155.56 1213.607c-16.319 6.1.879 28.151 13.415 17.882-1.56-3.466-.037-5.479-.224-8.933 11.638-.549 16.468-15.361 2.323-17.207-10.696-1.395-7.574 11.699-15.514 8.258zM3187.261 1314.373c1.452-15.9 22.725-11.835 21.782 3.423-.974 15.771-30.018 3.765-21.782-3.423z"/></g><path d="M2722.305 1164.01q1.515-1.77 3.24-3.66c21.54-23.52 70.05-75.64 102.96-77.77 42.28-2.74 42.29 39.17 61.2 69.2 11.2 17.78 42.45 42.56 55.64 60.92-29.13 21.52-42.33 49.78-54.99 106.04-17.49 77.76-57.52 135-113.52 192.19-40.49 41.35-89.54 96.89-125.34 148.04q-7.275-.99-14.51-2.01c-61.44-8.61-121.88-27.19-183.56-35.77-6.85-.95-14.04-2.24-21.46-3.75 57.08-38.16 111.22-147.28 141.6-206.15 20.57-39.85 93.18-153.34 112.55-180.36 21.19-29.53 13.04-40 36.19-66.92z" fill="url(#c)"/></g></svg>