<svg xmlns="http://www.w3.org/2000/svg" viewBox="0 0 1 1" width="0" height="0">
  <defs>
    <clipPath clipPathUnits='objectBoundingBox' id='madge'>
      <path d="M.28828.95513A.046.046,0,0,0,.28641.93834C.28466.93356.28262.93263.27838.935L.27587.93327A.16772.16772,0,0,1,.27464.91283.07516.07516,0,0,1,.28256.88563.0325.0325,0,0,1,.29729.87188.126.126,0,0,0,.33448.84305C.3427.83381.35252.82675.361.818.36893.80977.37712.80182.38441.793A.07664.07664,0,0,1,.40609.77736L.41532.77014.4177.76776A.158.158,0,0,0,.4398.75657L.45071.7516l.00394-.006L.456.74286a.16022.16022,0,0,0,.023-.038A.02329.02329,0,0,0,.48076.6901L.47621.68239.47089.67228A.02026.02026,0,0,0,.46551.66L.45811.64621A.08262.08262,0,0,1,.44587.62856.13776.13776,0,0,1,.43765.60021.153.153,0,0,0,.42855.57389.18877.18877,0,0,1,.41682.53065L.41563.52362A.02643.02643,0,0,1,.41747.50547L.41546.49615A.0544.0544,0,0,1,.40574.47475l.002-.0076a.01848.01848,0,0,0,.004-.01534A.03118.03118,0,0,1,.41738.43392C.42243.42569.42517.41614.43036.408L.43145.40422A.20453.20453,0,0,1,.44105.35086a.04316.04316,0,0,0-.0002-.019A.03352.03352,0,0,1,.4423.31849L.44261.315A.0431.0431,0,0,0,.4346.29816L.43035.29161.42521.29131.42455.29243a.05587.05587,0,0,0-.00243.0227A.03471.03471,0,0,1,.422.32823L.42106.33391A.01411.01411,0,0,1,.41388.34814L.40309.35627.3998.35714.39869.35313A.14629.14629,0,0,1,.40531.3265L.40712.317A.38247.38247,0,0,1,.409.2723.19243.19243,0,0,1,.41363.24278a.01222.01222,0,0,0-.00275-.011A.01577.01577,0,0,0,.38877.22627L.37142.23305a.05808.05808,0,0,1-.0239.00242A.17237.17237,0,0,1,.32272.23493L.29515.22682A.24566.24566,0,0,0,.25534.20974C.24446.20792.23452.20292.22387.20028a.22581.22581,0,0,1-.04532-.018C.15714.17166.13624.16.11544.148L.11137.14507.10347.13932A.02226.02226,0,0,0,.089.1412C.08067.147.07142.1507.06275.15573L.05539.16267.04326.17774l-.00262.002L.038.17961.03845.17673.04423.16751l0-.00637L.0444.15237.04572.1491.04466.143.03835.14134.03208.14548a.15031.15031,0,0,1-.01744.014L.00845.16293.00542.16262.0063.15953A.10551.10551,0,0,1,.02647.1414L.034.13532.03578.12883.03077.12494l-.011.0009L.00456.12926.00019.12816.003.124.01859.1185A.0928.0928,0,0,0,.04231.11019.05007.05007,0,0,1,.065.10542L.075.1033A.0198.0198,0,0,1,.089.10164l.00935.001A.02727.02727,0,0,1,.1134.1063.25655.25655,0,0,0,.19325.13355.21909.21909,0,0,1,.24727.154a.09814.09814,0,0,0,.045.0117A.23664.23664,0,0,1,.32035.16849.07071.07071,0,0,0,.36317.16223.08525.08525,0,0,1,.39553.15306.08515.08515,0,0,1,.41372.15591L.41818.15636A.00606.00606,0,0,0,.42353.14764L.41837.12878A.01763.01763,0,0,1,.42307.11053a.01828.01828,0,0,0,.004-.01528L.42556.08464A.014.014,0,0,1,.429.07255C.4367.06192.44819.05535.45454.0433L.46444.02683A.05641.05641,0,0,1,.49521.00242.034.034,0,0,1,.51769.00149L.52655.00737l.00534.003A.04274.04274,0,0,1,.5525.02386.06219.06219,0,0,1,.56626.052l.0044.013L.57585.08282.58.09391A.01017.01017,0,0,1,.5783.105.02208.02208,0,0,0,.5832.13808a.06763.06763,0,0,0,.025.00761L.6253.148A.045.045,0,0,1,.64318.15644.12414.12414,0,0,0,.67386.171.04718.04718,0,0,0,.70176.17069a.02656.02656,0,0,1,.01456-.001L.72.16978a.30473.30473,0,0,1,.04452-.006L.804.156.81332.15561A.02615.02615,0,0,0,.82551.15555C.83452.15318.84377.15463.85277.15294A.14656.14656,0,0,0,.8805.14522.04219.04219,0,0,1,.89821.14288C.90431.14308.9064.14157.90719.135L.908.12786.90987.12469.913.12633.91687.13316A.015.015,0,0,0,.93138.143.0609.0609,0,0,1,.96287.14922L.9757.15187.99509.159l.002.00147L.99869.1633.9958.16356A.02237.02237,0,0,0,.9837.16229L.97744.16838l.004.00706L.99437.18318l.00407.003.00063.006L.99431.19184.97963.18135A.06876.06876,0,0,0,.96055.17478L.95729.17462.95111.17834.95287.18528A.0958.0958,0,0,0,.97471.20922L.976.21206.97129.21574.95917.21214.9472.20084.94714.19726.94611.18812.93819.185.92954.19059A.00667.00667,0,0,1,.91733.189L.91239.18464.90026.18264A.0125.0125,0,0,0,.88833.189L.88612.19152C.87651.194.86835.20162.85845.20229A.354.354,0,0,0,.80994.21268.29491.29491,0,0,0,.77745.22173C.77089.22392.76344.22309.757.22554.75043.228.74381.226.73741.228L.71548.233.69388.23744.69187.2378C.67957.234.66682.23885.65446.23536L.63488.22766.626.22649.62176.23221A.0323.0323,0,0,1,.62045.25032L.61439.26344.6123.27357A.06151.06151,0,0,0,.61487.291L.6133.301A.08014.08014,0,0,0,.61.3234L.6085.33529.60488.36809A.16787.16787,0,0,0,.6048.38865.03567.03567,0,0,0,.61315.4063L.64224.45011C.646.45584.64574.45752.64126.46286A.10137.10137,0,0,1,.6222.48206l-.006.00376A.0161.0161,0,0,0,.606.50742L.61065.53466a.04548.04548,0,0,1-.0032.02366A.14368.14368,0,0,0,.59966.59344a.02673.02673,0,0,1-.005.01393A.03151.03151,0,0,0,.5901.62114a.26191.26191,0,0,1-.00654.03.11.11,0,0,0-.0062.02992L.57552.68447A.0507.0507,0,0,0,.56408.70921.02653.02653,0,0,0,.57027.72984.12811.12811,0,0,1,.58945.774.088.088,0,0,0,.59782.79522l.0103.02139A.1639.1639,0,0,0,.6188.83977L.62127.84825A.14549.14549,0,0,0,.64611.89364L.65378.90413A.03185.03185,0,0,1,.65957.92237.196.196,0,0,1,.65812.96025.05234.05234,0,0,0,.65833.97676.035.035,0,0,1,.65768.991C.65572.99776.65231,1.0002.6459.999L.63574.99916A.06085.06085,0,0,1,.613.99847.14014.14014,0,0,0,.57788.99337.00942.00942,0,0,1,.56759.98759l.001-.00442A.02186.02186,0,0,1,.58254.97876C.59405.97867.594.9786.59774.96671L.60037.95A.06012.06012,0,0,0,.60164.93009L.60222.9266A.05259.05259,0,0,0,.6014.899.029.029,0,0,0,.58966.88342.04562.04562,0,0,1,.57584.868.11544.11544,0,0,1,.56616.84551L.56045.83692.5544.82767.54891.82088A.07682.07682,0,0,1,.53053.80265L.52833.7955a.00817.00817,0,0,0-.01452-.004L.50457.80088l-.004.005A.01359.01359,0,0,1,.48573.8144L.47933.81528A.05154.05154,0,0,0,.45811.82911L.45143.83326A.01261.01261,0,0,0,.44237.8416C.44044.85027.43388.85263.4278.85585L.39807.87146a.09141.09141,0,0,1-.02948.014l-.00268.001A.18474.18474,0,0,1,.34743.89778.024.024,0,0,0,.33629.91863c0,.0083.00012.01667-.00056.025A.07235.07235,0,0,0,.339.96828l.00551.006L.3562.97613A.06248.06248,0,0,1,.374.9823L.37456.9864A.01686.01686,0,0,1,.36051.9933.12478.12478,0,0,1,.33728.99239a.17116.17116,0,0,0-.027-.00024C.30243.992.3024.99211.29976.98384L.29415.97718.289.96986.28831.96454Z" />
    </clipPath>
  </defs>
</svg>
