<svg xmlns="http://www.w3.org/2000/svg" viewBox="0 0 1 1" width="0" height="0"><defs><clipPath clipPathUnits="objectBoundingBox" id="madge"><path d="M.288.955A.046.046 0 00.286.938C.285.934.283.933.278.935L.276.933a.168.168 0 01-.001-.02.075.075 0 01.008-.027.033.033 0 01.014-.014.126.126 0 00.037-.029C.343.833.353.827.361.818L.384.793A.077.077 0 01.406.777L.416.77.417.768A.158.158 0 00.44.757L.45.752.456.746.456.743A.16.16 0 00.479.705.023.023 0 00.481.69L.476.682.471.672A.02.02 0 00.466.66L.458.646A.083.083 0 01.446.63.138.138 0 01.438.6a.153.153 0 00-.01-.026A.189.189 0 01.418.53L.416.524A.026.026 0 01.417.505L.415.496a.054.054 0 01-.01-.021L.409.467A.018.018 0 00.412.452.031.031 0 01.417.434L.43.408.431.404a.205.205 0 01.01-.053.043.043 0 000-.02.034.034 0 01.001-.013V.315A.043.043 0 00.436.298L.43.292H.425a.056.056 0 00-.003.023.035.035 0 010 .013v.006a.014.014 0 01-.008.014l-.01.008L.4.357.399.353A.146.146 0 01.405.327l.002-.01A.382.382 0 01.41.272a.192.192 0 01.005-.03.012.012 0 00-.003-.01.016.016 0 00-.022-.006L.37.233a.058.058 0 01-.023.002.172.172 0 01-.025 0L.295.227A.246.246 0 00.255.21C.245.208.235.203.224.2A.226.226 0 01.179.182 1.144 1.144 0 01.115.148L.111.145.103.14A.022.022 0 00.09.141C.081.147.071.151.063.156L.055.163.043.178.041.18H.038V.177l.006-.01V.153L.046.15.045.143.038.141.032.145A.15.15 0 01.015.16L.008.163H.005L.006.16A.106.106 0 01.026.14L.034.135.036.13.03.125H.02L.005.13H0L.003.123.019.118A.093.093 0 00.042.11.05.05 0 01.065.105l.01-.002A.02.02 0 01.089.102h.01a.027.027 0 01.014.004.257.257 0 00.08.028.22.22 0 01.054.02.098.098 0 00.045.012.237.237 0 01.028.002.07.07 0 00.043-.006.085.085 0 01.033-.009.085.085 0 01.018.003h.004A.006.006 0 00.424.148L.418.128A.018.018 0 01.423.112.018.018 0 00.427.095L.426.085A.014.014 0 01.429.073C.437.062.449.055.455.043l.01-.016a.056.056 0 01.03-.025.034.034 0 01.023 0l.009.005.005.003a.043.043 0 01.02.014.062.062 0 01.014.028l.005.013.005.018.004.01a.01.01 0 01-.002.012.022.022 0 00.005.033.068.068 0 00.025.008l.017.002a.045.045 0 01.018.008.124.124 0 00.03.015.047.047 0 00.029 0A.027.027 0 01.716.17H.72A.305.305 0 01.765.164L.804.156h.01a.026.026 0 00.012 0C.835.153.844.155.853.153A.147.147 0 00.88.145.042.042 0 01.898.143c.006 0 .008-.001.01-.008V.128L.91.125l.003.001.004.007a.015.015 0 00.014.01.06.06 0 01.032.006l.013.003.02.007.001.001L1 .163H.996a.022.022 0 00-.012 0L.977.167l.004.007.013.008.004.003L1 .192H.994L.98.182A.069.069 0 00.96.174H.958L.951.178l.002.007A.096.096 0 00.975.21l.001.003-.005.004L.96.212.947.201V.188L.937.185.93.191A.007.007 0 01.917.189L.912.185.9.183a.013.013 0 00-.012.006L.886.192c-.01.002-.018.01-.028.01a.354.354 0 00-.048.01.295.295 0 00-.033.01C.771.224.763.223.757.226.75.228.744.226.737.228L.715.233.694.237H.692C.68.235.667.24.654.236L.634.228.627.226.622.232A.032.032 0 01.62.25L.614.263l-.002.01a.062.062 0 00.003.018l-.002.01A.08.08 0 00.61.323L.609.335.605.368a.168.168 0 000 .02.036.036 0 00.008.018l.03.044C.645.456.645.458.64.463a.101.101 0 01-.019.02L.616.485a.016.016 0 00-.01.021l.005.028a.045.045 0 01-.004.023A.144.144 0 00.6.593a.027.027 0 01-.005.014.032.032 0 00-.005.014.262.262 0 01-.006.03.11.11 0 00-.007.03L.576.684A.05.05 0 00.564.71.027.027 0 00.57.73a.128.128 0 01.02.045.088.088 0 00.008.021l.01.022a.164.164 0 00.01.023l.003.008a.145.145 0 00.025.046l.008.01A.032.032 0 01.66.922.196.196 0 01.658.96a.052.052 0 000 .017.035.035 0 010 .014c-.002.007-.006.01-.012.008h-.01a.06.06 0 01-.023 0A.14.14 0 00.578.992a.01.01 0 01-.01-.005V.983A.022.022 0 01.584.98c.011 0 .011 0 .015-.012L.6.95A.06.06 0 00.602.93V.927a.053.053 0 000-.028A.029.029 0 00.59.883.046.046 0 01.576.868a.115.115 0 01-.01-.022L.56.836.554.829.55.82A.077.077 0 01.53.803L.528.795A.008.008 0 00.514.791l-.01.01-.003.005a.014.014 0 01-.015.008L.479.815A.052.052 0 00.46.83L.45.833a.013.013 0 00-.009.009C.44.85.434.852.428.856L.398.87a.091.091 0 01-.03.014L.367.886a.185.185 0 01-.019.012.024.024 0 00-.01.02L.335.945a.072.072 0 00.003.024l.006.006.011.002a.062.062 0 01.018.006v.004a.017.017 0 01-.013.007.125.125 0 01-.024 0 .171.171 0 00-.027 0C.302.991.302.992.3.982L.294.978.29.97V.965z"/></clipPath></defs></svg>