<svg xmlns="http://www.w3.org/2000/svg" xmlns:xlink="http://www.w3.org/1999/xlink" viewBox="0 0 3182.884 2238.451">
    <defs>
        <radialGradient id="b7c37744-fbeb-4e26-8230-edf01d6d189e" cx="531.143" cy="6907.501" r="3086.512"
                        gradientTransform="matrix(0.832, 0.555, 0.555, -0.832, -1056.46, 6672.697)"
                        gradientUnits="userSpaceOnUse">
            <stop offset="0" stop-color="#fff"/>
            <stop offset="0.535" stop-color="#ec38bc"/>
            <stop offset="1" stop-color="#7303c0"/>
        </radialGradient>
    </defs>
    <g id="ed32ed44-4855-482a-b72f-4b3304ff0628" data-name="Layer 2">
        <g id="f8c5631d-b7db-453d-b6a4-cfd2cb532fab" data-name="Layer 1">
            <path d="M718.308,1973.005A1614.186,1614.186,0,0,1,261.55,1511.191C22.115,1143.273-57.878,689.383,42.115,265.984,85.935,80.406,271.9-34.5,457.469,9.319c185.559,43.77,300.5,229.763,256.672,415.343-57.657,244.162-12.848,496.278,126.161,709.9,137.869,211.819,347.118,353.458,589.213,398.761,240.4,45.017,485.35-10.292,689.733-155.767C2325.367,1230.873,2459.2,1014.393,2496.115,768c28.265-188.581,204.032-318.538,392.612-290.3s318.55,204.031,290.3,392.586c-64.952,433.536-299.134,813.478-659.4,1069.87-353.352,251.453-797,350.584-1217.175,271.908C1093.115,2172.866,894.439,2090.526,718.308,1973.005Z"
                  style="fill: url(#b7c37744-fbeb-4e26-8230-edf01d6d189e)"/>
        </g>
    </g>
</svg>
