<svg xmlns="http://www.w3.org/2000/svg" xmlns:xlink="http://www.w3.org/1999/xlink" viewBox="0 0 3628.449 1416.541">
  <defs>
    <linearGradient id="b071c0eb-0603-47b5-9740-45e02203c743" x1="409.422" y1="3372.905" x2="3749.297" y2="3372.905" gradientTransform="matrix(0.886, -0.463, -0.463, -0.886, 1536.382, 4512.566)" gradientUnits="userSpaceOnUse">
      <stop offset="0" stop-color="#fff"/>
      <stop offset="0.535" stop-color="#ec38bc"/>
      <stop offset="1" stop-color="#7303c0"/>
    </linearGradient>
  </defs>
  <g id="b169b6e4-b85e-42d1-89bd-ba5121c9b1c8" data-name="Layer 2">
    <g id="a4f696c3-9785-427b-a5ca-e447fbf0a336" data-name="Layer 1">
      <path d="M3510.748,301.99a168.127,168.127,0,0,1,62.639,284.761c-774.725,704.418-1362.156,956.482-1795.666,770.917-280.043-119.935-415.673-387.155-535.337-622.9C1125.7,504.865,1045.565,363.533,918.311,340.2,763.032,311.671,542.605,459,297.631,755.045c-59.2,71.528-165.176,81.549-236.691,22.353a168.114,168.114,0,0,1-22.346-236.69c340.253-411.2,647.88-584.949,940.458-531.2,300.331,55.18,439.923,330.312,563.149,573.083,102.874,202.681,200.042,394.108,367.881,466,291.507,125.02,788.514-120.859,1437.128-710.6A168.036,168.036,0,0,1,3510.748,301.99Z" style="fill: url(#b071c0eb-0603-47b5-9740-45e02203c743)"/>
    </g>
  </g>
</svg>
