<svg xmlns="http://www.w3.org/2000/svg" xmlns:xlink="http://www.w3.org/1999/xlink" viewBox="0 0 3051.879 1819.283">
  <defs>
    <linearGradient id="a9cd8b6c-8460-4315-b78a-3e5c8a144b25" x1="359.474" y1="1676.572" x2="3518.506" y2="1676.572" gradientTransform="matrix(0.6, -0.8, -0.8, -0.6, 1708.658, 3469.947)" gradientUnits="userSpaceOnUse">
      <stop offset="0" stop-color="#fff"/>
      <stop offset="0.535" stop-color="#ec38bc"/>
      <stop offset="1" stop-color="#7303c0"/>
    </linearGradient>
  </defs>
  <g id="be2cd951-d27e-4665-868c-9cc7b4933764" data-name="Layer 2">
    <g id="a7fe4236-af8b-4c4d-8338-e861a1cee4ff" data-name="Layer 1">
      <path d="M2870.451,1.6a159.04,159.04,0,0,1,169.628,217.449l-.008.019C2666.264,1136.2,2267.789,1590.917,1822.141,1609.4c-287.88,11.877-512.628-160.836-710.889-313.21C917.889,1147.6,791.857,1059.68,673.739,1091.663c-144.148,39-272.155,254.624-360.448,607.2A159.008,159.008,0,0,1,4.8,1621.612c122.647-489.7,314.288-763.444,585.883-836.922,278.8-75.427,510.172,102.433,714.334,259.356,170.465,130.982,331.468,254.728,504.024,247.592,299.759-12.2,623.585-424.763,936.548-1192.6A159,159,0,0,1,2870.451,1.6Z" style="fill: url(#a9cd8b6c-8460-4315-b78a-3e5c8a144b25)"/>
    </g>
  </g>
</svg>
