<svg id="f5b8cdd4-2413-46dd-85e4-7d86b27b2295" data-name="Layer 1" xmlns="http://www.w3.org/2000/svg" xmlns:xlink="http://www.w3.org/1999/xlink" viewBox="0 0 161.416 232.3013"><defs><style>.a3520398-efbc-4666-859c-4d618656855a{fill:url(#a32da52f-0736-49a4-8512-e48bd477580f);}</style><linearGradient id="a32da52f-0736-49a4-8512-e48bd477580f" x1="-1328.165" y1="834.8137" x2="-1077.1733" y2="834.8137" gradientTransform="translate(-1381.6836 178.6693) rotate(-147.6958)" gradientUnits="userSpaceOnUse"><stop offset="0" stop-color="#fff"/><stop offset="0.5348" stop-color="#ceb7e2"/><stop offset="1" stop-color="#ec38bc"/></linearGradient></defs><path class="a3520398-efbc-4666-859c-4d618656855a" d="M.3077,15.4012A12.6362,12.6362,0,0,1,16.46.596c74.9947,23.8155,113.522,52.5025,117.7974,87.6792,2.7578,22.7256-9.501,41.6143-20.3169,58.2783-10.5483,16.252-16.7153,26.7881-13.4365,35.9414,3.998,11.168,21.8838,19.9454,50.3628,24.7129a12.6323,12.6323,0,1,1-4.1709,24.918c-39.5552-6.6211-62.4458-20.07-69.979-41.1172-7.7325-21.604,4.8925-41.0493,16.0307-58.209,9.2984-14.3271,18.0816-27.86,16.4278-41.4795C106.316,67.6561,71.5987,44.6146,8.8125,24.6761A12.6311,12.6311,0,0,1,.3077,15.4012Z"/></svg>