<svg id="e00e5c3b-9c2e-48ed-8228-b0ef8c01487a" data-name="Layer 1" xmlns="http://www.w3.org/2000/svg"
     xmlns:xlink="http://www.w3.org/1999/xlink" viewBox="0 0 229.3339 136.7096">
    <defs>
        <style>.bc177c9d-9a40-4b21-a77a-5e50e776819e{fill:url(#b9a9c11c-c828-4bc7-816f-0592405f0f80);}</style>
        <linearGradient id="b9a9c11c-c828-4bc7-816f-0592405f0f80" x1="731.5238" y1="1557.6892" x2="968.9195"
                        y2="1557.6892" gradientTransform="translate(-1641.2813 -185.4437) rotate(-53.1427)"
                        gradientUnits="userSpaceOnUse">
            <stop offset="0" stop-color="#fff"/>
            <stop offset="0.5348" stop-color="#ceb7e2"/>
            <stop offset="1" stop-color="#ec38bc"/>
        </linearGradient>
    </defs>
    <path class="bc177c9d-9a40-4b21-a77a-5e50e776819e"
          d="M215.701.12a11.95,11.95,0,0,1,12.7461,16.3408c-28.09,68.919-58.0332,103.0889-91.521,104.4761-21.6343.8936-38.522-12.085-53.4214-23.5352-14.53-11.166-24.0009-17.7729-32.8769-15.3691-10.8316,2.9307-20.4507,19.1343-27.086,45.6279A11.9485,11.9485,0,1,1,.3607,121.8555C9.5765,85.0576,23.9779,64.4863,44.3871,58.9648c20.9506-5.6675,38.3359,7.6978,53.6787,19.4893,12.81,9.8437,24.9087,19.1421,37.8745,18.6059,22.5263-.9174,46.86-31.9194,70.3779-89.6186A11.9431,11.9431,0,0,1,215.701.12Z"/>
</svg>
